<svg width="231" height="70" viewBox="0 0 231 70" fill="none" xmlns="http://www.w3.org/2000/svg">
<path d="M49.3225 16.4879V38.7023C49.3225 39.0624 49.1794 39.4078 48.9248 39.6624C48.6702 39.917 48.3249 40.06 47.9648 40.06H40.9523C40.5922 40.0599 40.247 39.9168 39.9924 39.6622C39.7378 39.4076 39.5947 39.0624 39.5946 38.7023V2.56951C39.5946 2.20942 39.7376 1.86408 39.9922 1.60946C40.2468 1.35483 40.5922 1.21179 40.9523 1.21179H47.4415C47.8016 1.21179 48.147 1.35483 48.4016 1.60946C48.6562 1.86408 48.7993 2.20942 48.7993 2.56951V7.65796C48.7993 7.65796 51.119 0.399433 58.0034 0.399433C58.0034 0.399433 64.8129 -0.423699 67.5817 7.13415C67.5817 7.13415 69.9014 0.399433 76.9354 0.399433C76.9354 0.399433 87.3961 -0.222556 87.3961 10.6015L87.4757 16.5628V38.7772C87.4757 39.1372 87.3327 39.4826 87.0781 39.7372C86.8234 39.9918 86.4781 40.1349 86.118 40.1349H79.1049C78.7449 40.1347 78.3996 39.9916 78.145 39.737C77.8904 39.4824 77.7474 39.1372 77.7472 38.7772L77.6831 14.5423C77.8825 9.05459 73.443 9.45389 73.443 9.45389C67.8558 9.55386 68.3934 16.5628 68.3934 16.5628V38.7772C68.3934 39.1372 68.2504 39.4826 67.9957 39.7372C67.7411 39.9918 67.3958 40.1349 67.0357 40.1349H60.0232C59.6632 40.1347 59.3179 39.9916 59.0633 39.737C58.8087 39.4824 58.6656 39.1372 58.6655 38.7772V15.0907C58.6655 15.0907 59.0756 9.4036 54.0865 9.4036C54.0871 9.4036 49.1483 8.75527 49.3225 16.4879ZM230.085 16.4215V38.6353C230.085 38.9953 229.942 39.3406 229.688 39.5952C229.433 39.8497 229.088 39.9928 228.728 39.993L221.434 40.1343C221.074 40.1341 220.729 39.991 220.475 39.7364C220.22 39.4818 220.077 39.1366 220.077 38.7766V15.0907C220.077 15.0907 220.487 9.4036 215.498 9.4036C215.498 9.4036 210.734 9.16894 210.734 18.0857V38.7017C210.734 39.0618 210.59 39.407 210.336 39.6616C210.081 39.9162 209.736 40.0593 209.376 40.0594H202.363C202.003 40.0593 201.658 39.9162 201.403 39.6616C201.148 39.407 201.005 39.0618 201.005 38.7017V2.56951C201.005 2.20947 201.148 1.86422 201.403 1.60963C201.658 1.35504 202.003 1.21195 202.363 1.21179H208.852C209.212 1.21179 209.558 1.35483 209.812 1.60946C210.067 1.86408 210.21 2.20942 210.21 2.56951V7.65796C210.21 7.65796 212.53 0.399433 219.414 0.399433C219.414 0.399433 226.789 -0.719428 229.272 6.99347C229.273 6.99287 230.085 8.58406 230.085 16.4215ZM179.452 0.249773C170.485 0.249773 163.214 7.80762 163.214 20.5288C163.214 31.7287 168.826 40.8077 179.452 40.8077C189.479 40.8077 195.69 31.7287 195.69 20.5288C195.69 8.03211 188.42 0.249773 179.452 0.249773ZM185.112 20.9777C185.112 25.7669 184.514 28.3111 184.514 28.3111C183.662 33.3738 179.987 33.381 179.445 33.3541C178.86 33.3774 175.154 33.3247 174.387 28.3111C174.387 28.3111 173.788 25.7669 173.788 20.9777V20.1798C173.788 15.3906 174.387 12.8464 174.387 12.8464C175.154 7.83277 178.861 7.78009 179.445 7.80284C179.987 7.7759 183.662 7.78248 184.514 12.8464C184.514 12.8464 185.112 15.3906 185.112 20.1798V20.9777ZM159.144 7.60768V2.42344C159.144 2.0634 159.001 1.71815 158.746 1.46356C158.491 1.20898 158.146 1.06588 157.786 1.06572H134.607C134.247 1.06572 133.901 1.20877 133.647 1.46339C133.392 1.71801 133.249 2.06335 133.249 2.42344V7.56757C133.249 7.92761 133.392 8.27286 133.647 8.52745C133.901 8.78203 134.247 8.92513 134.607 8.92529H146.698L132.386 29.6862C132.386 29.6862 131.822 30.5279 131.841 31.4576V37.7726C131.841 37.7726 131.748 39.9379 134.203 38.6814C134.203 38.6814 138.565 36.0462 145.879 36.0462C145.879 36.0462 153.101 35.9564 157.917 38.9083C157.917 38.9083 159.916 39.817 159.916 37.8187V32.322C159.916 32.322 160.097 30.8673 158.189 29.9592C158.189 29.9592 152.647 26.9157 145.379 27.4149L159.144 7.60768ZM34.1822 33.5983L31.987 30.2567C31.2884 29.0091 31.3387 27.6119 31.3387 27.6119V12.1975C31.638 -1.12231 16.8713 0.0252822 16.8713 0.0252822C3.7443 0.0252822 1.8053 10.2411 1.8053 10.2411C1.25814 12.295 2.84933 12.3447 2.84933 12.3447L9.26377 12.9955C9.26377 12.9955 10.3575 13.2457 10.7556 11.9436C10.7556 11.9436 11.6003 7.48675 16.3242 7.48675C21.4641 7.48675 21.4108 11.8981 21.4108 11.8981V15.5912C11.1501 15.9342 6.39508 18.7825 6.39508 18.7825C0.0596564 22.3744 0.458352 29.5084 0.458352 29.5084C0.458352 41.1316 11.5332 40.6323 11.5332 40.6323C18.617 40.6323 22.8074 35.4445 22.8074 35.4445C24.0544 37.6403 26.3496 39.7344 26.3496 39.7344C27.4978 40.9796 28.6945 39.9343 28.6945 39.9343L33.8829 35.4948C35.0299 34.6459 34.1822 33.5983 34.1822 33.5983ZM14.9904 33.4546C11.6583 33.4546 10.4198 30.1435 10.9729 26.8893C11.5266 23.6351 14.4025 21.0777 21.4114 21.1525V23.1311C21.6598 31.7742 17.7639 33.4546 14.9904 33.4546ZM127.37 33.5983L125.176 30.2567C124.477 29.0091 124.527 27.6119 124.527 27.6119V12.1975C124.826 -1.12231 110.059 0.0252822 110.059 0.0252822C96.9325 0.0252822 94.9935 10.2411 94.9935 10.2411C94.4463 12.295 96.0375 12.3447 96.0375 12.3447L102.452 12.9955C102.452 12.9955 103.546 13.2457 103.944 11.9436C103.944 11.9436 104.788 7.48675 109.512 7.48675C114.652 7.48675 114.599 11.8981 114.599 11.8981V15.5912C104.339 15.9342 99.5832 18.7825 99.5832 18.7825C93.2478 22.3744 93.6465 29.5084 93.6465 29.5084C93.6465 41.1316 104.721 40.6323 104.721 40.6323C111.805 40.6323 115.996 35.4445 115.996 35.4445C117.243 37.6403 119.537 39.7344 119.537 39.7344C120.685 40.9796 121.883 39.9343 121.883 39.9343L127.07 35.4948C128.218 34.6459 127.37 33.5983 127.37 33.5983ZM108.179 33.4546C104.847 33.4546 103.608 30.1435 104.161 26.8893C104.715 23.6351 107.591 21.0777 114.599 21.1525V23.1311C114.848 31.7742 110.953 33.4546 108.179 33.4546Z" fill="black"/>
<path d="M145.028 62.7754C145.028 62.7754 144.441 63.7961 145.162 64.0242C145.162 64.0242 145.976 64.342 146.991 63.3998C146.991 63.3998 154.396 56.9315 154.574 45.155C154.574 45.155 154.629 43.6841 154.039 43.2818C154.039 43.2818 151.719 41.2297 143.377 41.8541C143.377 41.8541 136.106 42.345 132.137 45.8692C132.137 45.8692 131.78 46.181 131.78 46.5821C131.78 46.5821 131.694 47.4484 133.876 47.073C133.876 47.073 141.147 46.0463 145.474 46.5821C145.474 46.5821 147.705 46.8497 148.329 47.6088C148.329 47.6088 149.356 48.4565 148.82 51.2659C148.82 51.2671 147.347 58.4041 145.028 62.7754Z" fill="#F3971B"/>
<path d="M143.562 51.4771C143.562 51.4771 144.648 52.8839 142.896 54.0973C142.896 54.0973 124.178 69.0694 92.7491 69.0694C92.7491 69.0694 60.3973 70.6653 33.3836 46.121C33.3836 46.121 32.4365 45.2895 33.0244 44.5167C33.0244 44.5167 33.55 43.8055 34.9107 44.5789C34.9107 44.5789 60.3225 60.4136 93.6967 60.4136C93.6967 60.4136 116.894 61.3116 140.69 51.1347C140.69 51.1347 142.586 50.1523 143.562 51.4771Z" fill="#F3971B"/>
</svg>
