<svg width="64" height="70" viewBox="0 0 64 70" fill="none" xmlns="http://www.w3.org/2000/svg">
<path opacity="0.5" d="M58.1293 13.2029L58.1016 13.1751L57.741 12.9532L57.6578 12.8978L38.1874 1.6648L37.8545 1.47065C36.1373 0.49995 34.1968 -0.00668076 32.2242 0.000661534C30.2599 -0.0102751 28.3275 0.496755 26.6216 1.47065L26.3442 1.63707L26.261 1.69254L6.67959 12.981L6.29129 13.2029H6.26356C4.57857 14.2353 3.18644 15.6826 2.22015 17.4064C1.25386 19.1301 0.745676 21.0729 0.74415 23.049V46.0697C0.741664 48.0498 1.25111 49.997 2.22305 51.7222C3.19499 53.4474 4.59641 54.892 6.29129 55.9159L6.54091 56.0545L26.4829 67.5649C28.2312 68.5646 30.2102 69.0905 32.2242 69.0905C34.2381 69.0905 36.2172 68.5646 37.9655 67.5649L57.8797 56.0545L57.9352 56.0268C59.6881 55.0148 61.144 53.5594 62.1566 51.8068C63.1692 50.0542 63.7029 48.066 63.7042 46.0419V23.0213C63.6953 21.044 63.1777 19.1022 62.2014 17.3827C61.2251 15.6632 59.8228 14.2238 58.1293 13.2029ZM58.9891 34.8922H58.8782C44.3724 34.9477 32.557 46.8185 32.557 61.3243C32.557 61.4126 32.5219 61.4973 32.4595 61.5597C32.3971 61.6221 32.3125 61.6572 32.2242 61.6572C32.1359 61.6572 32.0513 61.6221 31.9888 61.5597C31.9264 61.4973 31.8914 61.4126 31.8914 61.3243V61.2134C31.8359 46.7076 19.965 34.8922 5.45922 34.8922C5.37095 34.8922 5.28629 34.8571 5.22388 34.7947C5.16146 34.7323 5.12639 34.6476 5.12639 34.5594C5.12639 34.4711 5.16146 34.3864 5.22388 34.324C5.28629 34.2616 5.37095 34.2265 5.45922 34.2265H5.57016C20.0759 34.1711 31.8914 22.3002 31.8914 7.7944C31.8914 7.70612 31.9264 7.62147 31.9888 7.55905C32.0513 7.49663 32.1359 7.46157 32.2242 7.46157C32.3125 7.46157 32.3971 7.49663 32.4595 7.55905C32.5219 7.62147 32.557 7.70612 32.557 7.7944C32.5648 14.8022 35.3521 21.5208 40.3074 26.4761C45.2627 31.4314 51.9813 34.2188 58.9891 34.2265C59.0771 34.2277 59.1611 34.2631 59.2232 34.3253C59.2854 34.3875 59.3208 34.4714 59.322 34.5594C59.3263 34.6041 59.3206 34.6493 59.3054 34.6916C59.2902 34.734 59.2658 34.7724 59.234 34.8042C59.2022 34.836 59.1638 34.8604 59.1214 34.8756C59.0791 34.8908 59.0339 34.8965 58.9891 34.8922Z" fill="#132128"/>
</svg>
