<svg width="70" height="70" viewBox="0 0 70 70" fill="none" xmlns="http://www.w3.org/2000/svg">
<g clip-path="url(#clip0_1493_361)">
<path d="M38.1384 6.01287C42.6779 0.0296575 48.9889 0.000488281 48.9889 0.000488281C48.9889 0.000488281 49.9277 5.62572 45.4179 11.0446C40.6026 16.8308 35.1293 15.884 35.1293 15.884C35.1293 15.884 34.1016 11.3334 38.1384 6.01287ZM35.7067 19.8244C38.0421 19.8244 42.3764 16.6142 48.0181 16.6142C57.7293 16.6142 61.5496 23.5244 61.5496 23.5244C61.5496 23.5244 54.0777 27.3447 54.0777 36.6143C54.0777 47.0714 63.3857 50.6752 63.3857 50.6752C63.3857 50.6752 56.879 68.989 48.0904 68.989C44.0538 68.989 40.9155 66.2688 36.6624 66.2688C32.3281 66.2688 28.0269 69.0905 25.2255 69.0905C17.2001 69.0907 7.06128 51.7181 7.06128 37.7534C7.06128 24.0141 15.6432 16.8067 23.6926 16.8067C28.9255 16.8067 32.9863 19.8244 35.7067 19.8244Z" fill="#999999"/>
</g>
<defs>
<clipPath id="clip0_1493_361">
<rect width="69.09" height="69.09" fill="white" transform="translate(0.677979 0.000488281)"/>
</clipPath>
</defs>
</svg>
