<svg width="366" height="70" viewBox="0 0 366 70" fill="none" xmlns="http://www.w3.org/2000/svg">
<path d="M121.334 16.1182H121.456C122.186 16.1182 122.612 16.6432 122.612 17.3433V48.7882C122.612 49.3133 122.186 49.8967 121.456 49.8967C120.909 49.8967 120.3 49.4883 120.3 48.7882V17.2266C120.3 16.6432 120.726 16.1182 121.334 16.1182ZM90.1307 17.7517H111.602C112.332 17.7517 112.758 18.4517 112.758 18.9768C112.758 19.5019 112.332 20.0852 111.602 20.0852H91.2864V33.2116H109.656C110.203 33.2116 110.812 33.62 110.812 34.3201C110.812 34.8451 110.386 35.4285 109.656 35.4285H91.4688V48.9633C91.3472 49.6633 90.7389 50.1884 90.0698 50.1884C89.3399 50.1884 88.7925 49.6633 88.7925 48.9633V19.0351H88.9141C88.8971 18.8724 88.9159 18.708 88.9693 18.5527C89.0228 18.3974 89.1097 18.2546 89.2244 18.1336C89.3391 18.0126 89.4791 17.916 89.6352 17.8502C89.7913 17.7844 89.9601 17.7508 90.1307 17.7517ZM152.477 27.4944C152.477 26.7943 151.93 26.3859 151.322 26.3859C150.592 26.3859 150.166 26.911 150.166 27.4944V40.6207C150.166 45.1129 146.334 48.6132 141.65 48.4965C136.663 48.4965 133.804 45.4046 133.804 40.5041V27.4944C133.804 26.7943 133.256 26.3859 132.648 26.3859C132.101 26.3859 131.492 26.911 131.492 27.4944V40.9124C131.492 46.4547 135.203 50.5384 141.285 50.5384C144.996 50.6551 148.524 48.7882 150.227 45.6379V49.0216C150.227 49.7217 150.774 50.1301 151.383 50.1301C152.112 50.1301 152.538 49.605 152.538 49.0216H152.417V27.4944H152.477ZM174.071 27.6694C174.071 28.1944 173.523 28.6028 172.915 28.6028H165.068V43.6544C165.068 47.0381 167.076 48.2632 170.056 48.2632C171.029 48.2632 172.063 48.1465 172.915 47.8548C173.462 47.8548 173.888 48.2632 173.888 48.7882C173.888 49.1966 173.584 49.605 173.158 49.7217C172.003 50.13 170.725 50.2467 169.63 50.2467C165.92 50.2467 162.818 48.2048 162.818 43.8877V28.6028H160.142C159.594 28.6028 158.986 28.0777 158.986 27.4944C158.986 26.9693 159.533 26.5609 160.142 26.5609H162.818V20.0852C162.818 19.5602 163.244 18.9768 163.791 18.9768H163.913C164.46 18.9768 165.068 19.5019 165.068 20.0852V26.5609H172.915C173.523 26.5609 174.071 27.086 174.071 27.6694ZM192.319 28.6028C192.866 28.6028 193.474 28.1944 193.474 27.6694C193.474 27.1443 192.927 26.5609 192.319 26.5609H184.472V20.0852C184.472 19.5602 183.925 18.9768 183.316 18.9768H183.195C182.647 18.9768 182.221 19.5019 182.221 20.0852V26.5609H179.545C178.998 26.5609 178.389 26.9693 178.389 27.4944C178.389 28.0194 178.937 28.6028 179.545 28.6028H182.221V43.8877C182.221 48.2048 185.324 50.2467 189.034 50.2467C190.19 50.2467 191.467 50.13 192.562 49.7217C192.988 49.605 193.292 49.1966 193.292 48.7882C193.292 48.2632 192.866 47.8548 192.319 47.8548C191.467 48.1465 190.494 48.2632 189.46 48.2632C186.479 48.2632 184.472 47.0381 184.472 43.6544V28.6028H192.319ZM197.732 38.2288C197.732 31.3447 202.72 25.9192 209.411 25.9192C216.406 25.9192 220.785 31.3447 220.785 38.2288C220.785 38.7539 220.238 39.3373 219.629 39.3373H200.287C200.713 45.1712 205.153 48.5549 209.958 48.5549C212.939 48.5549 215.919 47.3298 217.926 45.2879C218.048 45.1712 218.352 44.9962 218.656 44.9962C219.204 44.9962 219.812 45.5212 219.812 46.1046C219.812 46.3963 219.69 46.6297 219.386 46.9214C216.953 49.4883 213.425 50.8301 209.836 50.7134C203.267 50.7134 197.732 45.8129 197.732 38.4038V38.2288ZM230.031 33.3283C231.612 29.4196 235.444 26.5609 239.824 26.2692C240.554 26.2692 241.101 26.7943 241.101 27.611C241.101 28.1361 240.675 28.8362 239.945 28.8362H239.824C234.532 29.3612 230.031 33.0366 230.031 40.6207V49.3133C229.909 50.0134 229.483 50.4218 228.753 50.4218C228.206 50.4218 227.598 49.8967 227.598 49.3133V27.611C227.719 26.911 228.145 26.5026 228.875 26.5026C229.422 26.5026 230.031 27.0276 230.031 27.611V33.3283ZM278.631 25.0441C276.928 25.0441 275.529 26.1525 275.103 27.7277L270.967 40.329L266.831 27.7277C266.405 26.0942 264.823 24.8691 262.999 24.8691H262.573C260.748 24.8691 259.166 25.9775 258.741 27.7277L254.604 40.2124L250.651 27.611C250.225 26.0942 248.826 24.9274 247.123 24.9274H247.001C245.176 24.9274 243.717 26.4442 243.717 28.1944C243.717 28.7195 243.838 29.3029 244.021 29.8279L250.407 47.3298C250.833 49.0799 252.415 50.3051 254.361 50.4218H254.665C256.49 50.4218 258.072 49.1966 258.619 47.4464L262.755 34.9618L266.891 47.4464C267.317 49.1966 269.02 50.4218 270.845 50.4218H271.149C273.156 50.4218 274.86 49.1966 275.285 47.3298L281.672 29.7113C281.794 29.3029 281.976 28.7778 281.976 28.3694V28.2528C281.915 26.4443 280.516 25.0441 278.631 25.0441ZM288.606 26.2692C291.283 25.4525 294.02 24.9274 296.879 25.0441C300.832 25.0441 303.691 26.1526 305.82 27.9027C307.827 30.0613 308.801 32.9199 308.679 35.7786V46.863C308.679 48.7882 307.097 50.2467 305.151 50.2467C303.326 50.2467 301.745 49.0216 301.623 47.2714C299.616 49.3133 296.757 50.5384 293.777 50.3634C289.093 50.3634 284.957 47.6798 284.957 42.7793C284.957 37.3537 289.215 34.7868 295.358 34.7868C297.487 34.7868 299.616 35.0785 301.623 35.7202V35.3118C301.623 32.3365 299.798 30.8197 296.088 30.8197C294.385 30.8197 292.682 30.9364 290.979 31.5198C290.674 31.6364 290.249 31.6365 290.005 31.6365C288.302 31.7531 286.903 30.528 286.903 28.9528C286.782 27.786 287.451 26.6776 288.606 26.2692ZM330.576 27.3777C331.002 25.8609 332.401 24.9274 333.983 24.9274C335.99 24.9274 337.511 26.4442 337.511 28.1944V28.3111C337.511 28.8362 337.389 29.4196 337.085 29.9446L329.421 47.4464C328.691 49.1966 326.988 50.3051 325.163 50.4218H324.737C322.73 50.3051 321.209 49.0799 320.601 47.3298L312.633 29.8279C312.329 29.3029 312.207 28.7195 312.207 28.1944C312.328 26.2692 313.91 24.9274 315.735 24.9274C317.438 24.9274 318.837 26.0359 319.263 27.4944L324.798 41.7292L330.576 27.3777ZM340.43 38.7539C340.734 45.5212 346.817 50.8301 353.934 50.4218C357.218 50.4218 360.32 49.4883 362.875 47.4464C363.605 46.9214 363.848 46.2213 363.848 45.4046V45.2879C363.848 43.771 362.571 42.6043 360.989 42.6043C360.442 42.6043 359.712 42.7209 359.286 43.1293C357.705 44.2378 355.88 44.8795 353.994 44.7628C350.892 44.8795 348.155 42.8376 347.729 39.8623H362.388C364.213 39.7456 365.673 38.2288 365.491 36.4786V35.9536C365.491 29.8279 359.955 24.6941 353.143 24.8691C345.6 24.8691 340.309 30.703 340.309 37.7621V38.7539H340.43Z" fill="#10112B"/>
<path d="M200.104 37.1205C200.53 31.9866 204.362 28.0195 209.228 28.0195C214.764 28.0195 217.744 32.3367 218.048 37.1205H200.104ZM301.684 41.2042C301.684 43.8879 299.251 45.5214 295.845 45.4047C293.594 45.4047 291.891 44.2962 291.891 42.4294V42.3127C291.891 40.2708 293.898 38.929 297.001 38.929C298.582 38.929 300.285 39.3374 301.684 39.8624V41.2042ZM353.204 30.4698C350.223 30.4698 348.216 32.5117 347.669 35.7787H358.617C358.192 32.6284 356.184 30.4698 353.204 30.4698Z" fill="white"/>
<path d="M52.0535 0.541663C84.0481 -4.06715 63.5496 22.0689 53.635 29.4197C60.4475 34.4369 67.4425 41.4959 70.423 49.4884C75.9582 64.1316 62.3331 66.2902 52.0535 62.6148C40.8007 58.8227 30.886 50.7136 24.3168 41.2042C22.492 41.2042 20.4847 40.9125 18.5991 40.3875C22.3095 50.4219 23.891 60.6896 22.857 69.0905C22.857 52.1721 14.463 35.3703 2.35855 21.3688C-1.89928 16.4683 2.4802 12.8513 6.31225 17.5768C8.92777 21.0188 11.3 24.5775 13.4289 28.2529C17.6259 14.4848 38.0635 2.46686 52.0535 0.541663ZM47.4915 25.4526C53.7566 21.7772 72.7952 2.17517 55.034 3.92535C44.8152 5.0338 32.4067 14.0764 27.2973 19.9103C34.4139 19.0936 41.6522 22.0689 47.4915 25.4526ZM29.852 40.6792C35.5696 46.8048 43.3554 52.7554 51.7494 54.914C56.6155 56.1391 61.9682 55.6141 60.0217 48.9634C58.0145 42.8377 52.9051 37.4705 47.9173 33.3868C46.5183 34.3202 44.9368 35.312 43.3554 35.9537C39.0975 38.2289 34.5356 39.8624 29.852 40.6792Z" fill="#EBA12A"/>
<path d="M27.1147 24.227C31.9808 23.8186 37.2118 26.2689 41.2263 28.7191C37.3943 30.4693 33.1364 31.5778 28.6961 31.8111C22.1877 31.8694 20.8496 24.8104 27.1147 24.227Z" fill="white"/>
</svg>
