<svg width="212" height="70" viewBox="0 0 212 70" fill="none" xmlns="http://www.w3.org/2000/svg">
<path d="M26.3387 0H28.2209C34.7555 0.142055 41.1835 2.77008 45.8003 7.42239C44.0956 9.16256 42.3554 10.8317 40.6863 12.5719C38.0938 10.228 34.9685 8.41677 31.5592 7.77752C26.5162 6.71211 21.0826 7.67098 16.8565 10.5476C12.2397 13.5663 9.11448 18.6803 8.43972 24.1494C7.69393 29.5475 9.22102 35.2297 12.7369 39.4203C16.1107 43.5044 21.2602 46.0614 26.5873 46.239C31.5592 46.5231 36.7442 44.996 40.3666 41.5156C43.2077 39.0652 44.5218 35.3362 44.9479 31.7138C39.0526 31.7138 33.1573 31.7493 27.262 31.7138V24.398H52.0862C53.3647 32.2465 51.518 41.0895 45.5517 46.7007C41.5741 50.6782 36.0695 53.0221 30.4583 53.4838C25.0247 54.0165 19.4135 52.9866 14.5836 50.3586C8.79486 47.2689 4.17806 42.0484 1.90518 35.9045C-0.225652 30.2578 -0.261166 23.8653 1.72761 18.1831C3.53881 12.9981 7.01917 8.41677 11.4939 5.22053C15.7911 2.0598 21.0116 0.319624 26.3387 0Z" fill="#3780FF"/>
<path d="M168.749 1.84668H176.349V52.5604C173.827 52.5604 171.271 52.5959 168.749 52.5249C168.785 35.6558 168.749 18.7513 168.749 1.84668Z" fill="#38B137"/>
<path d="M68.9908 19.4259C73.6786 18.538 78.7571 19.5324 82.6281 22.338C86.144 24.824 88.5944 28.7305 89.3402 32.9921C90.2991 37.9286 89.0916 43.3267 85.8954 47.2332C82.4505 51.6014 76.8038 53.9453 71.2992 53.5902C66.2562 53.306 61.3553 50.7846 58.3722 46.665C54.9984 42.1192 54.1815 35.8688 56.0283 30.5417C57.875 24.824 63.0955 20.4558 68.9908 19.4259ZM70.0562 26.1735C68.1385 26.6707 66.3628 27.7716 65.0843 29.3342C61.6394 33.4538 61.8525 40.1659 65.6525 44.0014C67.8188 46.2033 71.0861 47.2332 74.1048 46.6295C76.9104 46.1323 79.3608 44.25 80.7104 41.7641C83.0543 37.5379 82.3795 31.7137 78.7926 28.4109C76.4842 26.28 73.1104 25.3922 70.0562 26.1735Z" fill="#FA3913"/>
<path d="M106.635 19.426C111.998 18.3961 117.858 19.8877 121.871 23.6522C128.405 29.512 129.116 40.4857 123.54 47.2334C120.166 51.495 114.697 53.8389 109.299 53.5903C104.149 53.4483 99.071 50.8913 96.0168 46.6651C92.5719 42.0128 91.8261 35.6203 93.7794 30.1867C95.7327 24.6466 100.847 20.4204 106.635 19.426ZM107.701 26.1737C105.783 26.6709 104.007 27.7718 102.729 29.2989C99.3196 33.3475 99.4616 39.953 103.12 43.824C105.286 46.1324 108.66 47.2689 111.785 46.6296C114.555 46.0969 117.041 44.2502 118.39 41.7642C120.699 37.5026 120.024 31.6783 116.402 28.3755C114.093 26.2447 110.719 25.3924 107.701 26.1737Z" fill="#FCBD06"/>
<path d="M138.562 21.486C142.646 18.929 148.08 18.2187 152.484 20.4206C153.869 21.0243 155.005 22.0542 156.106 23.0841C156.142 22.1252 156.106 21.1308 156.142 20.1365C158.521 20.172 160.9 20.1365 163.315 20.172V51.4951C163.28 56.2185 162.072 61.2259 158.663 64.6708C154.934 68.4707 149.216 69.6427 144.067 68.8614C138.562 68.0446 133.768 64.0315 131.637 58.953C133.768 57.9231 136.005 57.1063 138.207 56.1475C139.45 59.0596 141.972 61.5456 145.132 62.1138C148.293 62.682 151.951 61.9007 154.011 59.2727C156.213 56.5736 156.213 52.8802 156.106 49.5774C154.472 51.1755 152.59 52.5961 150.317 53.1288C145.381 54.5138 139.947 52.8092 136.147 49.4709C132.312 46.1326 130.039 40.9831 130.252 35.8691C130.359 30.0803 133.626 24.5046 138.562 21.486ZM145.914 26.0317C143.747 26.3869 141.723 27.5944 140.338 29.2635C137 33.241 137 39.598 140.373 43.5045C142.291 45.8129 145.381 47.0914 148.364 46.7718C151.17 46.4877 153.762 44.712 155.147 42.2616C157.491 38.1064 157.101 32.4597 153.94 28.8373C151.987 26.6 148.861 25.499 145.914 26.0317Z" fill="#3780FF"/>
<path d="M185.476 23.2969C189.738 19.3193 196.308 17.9698 201.777 20.0651C206.962 22.0184 210.265 26.9548 211.934 32.0333C204.227 35.2295 196.556 38.3903 188.85 41.5865C189.915 43.6108 191.549 45.4575 193.751 46.2033C196.841 47.3042 200.534 46.9136 203.127 44.8538C204.156 44.0725 204.973 43.0426 205.755 42.0482C207.708 43.3622 209.661 44.6407 211.614 45.9547C208.844 50.1098 204.192 53.022 199.184 53.4836C193.644 54.1584 187.749 52.0276 184.162 47.6949C178.267 40.8762 178.835 29.4408 185.476 23.2969ZM189.276 29.8669C188.069 31.6071 187.571 33.738 187.607 35.8333C192.757 33.7024 197.906 31.5716 203.056 29.4053C202.203 27.4165 200.143 26.209 198.048 25.8894C194.674 25.2857 191.158 27.0969 189.276 29.8669Z" fill="#FA3913"/>
</svg>
