<svg width="325" height="70" viewBox="0 0 325 70" fill="none" xmlns="http://www.w3.org/2000/svg">
<path d="M324.387 31.3011V25.6097H317.32V16.7618L317.082 16.835L310.443 18.8661L310.312 18.9059V25.61H299.835V21.8753C299.835 20.1362 300.223 18.8054 300.99 17.9179C301.751 17.041 302.839 16.5952 304.228 16.5952C305.226 16.5952 306.259 16.8303 307.299 17.294L307.56 17.4104V11.4166L307.437 11.3715C306.467 11.0228 305.148 10.8472 303.512 10.8472C301.45 10.8472 299.577 11.2958 297.944 12.1849C296.309 13.0752 295.024 14.3462 294.123 15.9622C293.225 17.5763 292.77 19.4406 292.77 21.5037V25.6097H287.849V31.3011H292.77V55.2779H299.835V31.3011H310.312V46.538C310.312 52.8132 313.272 55.9932 319.11 55.9932C320.069 55.9932 321.079 55.8809 322.11 55.6608C323.159 55.4348 323.874 55.209 324.294 54.968L324.387 54.9129V49.1689L324.1 49.3589C323.717 49.6144 323.239 49.8232 322.679 49.9785C322.117 50.1366 321.648 50.2158 321.284 50.2158C319.916 50.2158 318.905 49.8473 318.277 49.1201C317.642 48.3863 317.32 47.103 317.32 45.308V31.3011H324.387ZM272.072 50.2167C269.508 50.2167 267.486 49.3664 266.061 47.6916C264.628 46.0083 263.901 43.6084 263.901 40.5592C263.901 37.4133 264.628 34.9511 266.062 33.238C267.487 31.5362 269.49 30.6725 272.014 30.6725C274.464 30.6725 276.414 31.4974 277.811 33.1256C279.214 34.7623 279.927 37.2048 279.927 40.3873C279.927 43.609 279.257 46.0837 277.936 47.7392C276.624 49.3821 274.651 50.2167 272.072 50.2167ZM272.386 24.895C267.494 24.895 263.608 26.3285 260.837 29.1557C258.069 31.9833 256.665 35.8962 256.665 40.7868C256.665 45.4319 258.035 49.1683 260.738 51.8903C263.441 54.6133 267.12 55.9926 271.67 55.9926C276.413 55.9926 280.221 54.5391 282.99 51.6727C285.759 48.8095 287.162 44.9335 287.162 40.1572C287.162 35.4394 285.846 31.6752 283.248 28.9713C280.65 26.2662 276.994 24.895 272.386 24.895ZM245.274 24.895C241.947 24.895 239.194 25.7462 237.091 27.4245C234.975 29.1128 233.902 31.3271 233.902 34.0066C233.902 35.3994 234.134 36.6366 234.59 37.6859C235.048 38.7387 235.758 39.6657 236.701 40.4437C237.637 41.2154 239.081 42.0237 240.995 42.8461C242.604 43.5082 243.804 44.0682 244.567 44.5097C245.312 44.9423 245.84 45.3771 246.139 45.8007C246.429 46.2152 246.576 46.7825 246.576 47.4825C246.576 49.4757 245.084 50.4455 242.012 50.4455C240.873 50.4455 239.574 50.2076 238.15 49.7387C236.737 49.2768 235.403 48.6004 234.195 47.7332L233.902 47.5228V54.3247L234.009 54.3747C235.009 54.8362 236.269 55.2253 237.755 55.5315C239.237 55.838 240.584 55.9939 241.755 55.9939C245.366 55.9939 248.274 55.1386 250.396 53.4503C252.531 51.7504 253.613 49.4838 253.613 46.7117C253.613 44.7119 253.031 42.997 251.882 41.6139C250.742 40.2421 248.762 38.9826 246.002 37.8694C243.802 36.9866 242.393 36.2537 241.812 35.6911C241.251 35.1477 240.967 34.3791 240.967 33.4058C240.967 32.543 241.318 31.8518 242.039 31.292C242.765 30.7295 243.777 30.4433 245.045 30.4433C246.223 30.4433 247.427 30.6293 248.625 30.9937C249.821 31.3581 250.873 31.8462 251.75 32.4432L252.039 32.6404V26.1883L251.928 26.1407C251.118 25.7935 250.051 25.4964 248.754 25.2553C247.464 25.0159 246.293 24.895 245.274 24.895ZM215.485 50.2167C212.921 50.2167 210.899 49.3664 209.474 47.6916C208.04 46.0083 207.315 43.609 207.315 40.5592C207.315 37.4133 208.041 34.9511 209.476 33.238C210.9 31.5362 212.902 30.6725 215.428 30.6725C217.877 30.6725 219.827 31.4974 221.224 33.1256C222.628 34.7623 223.34 37.2048 223.34 40.3873C223.34 43.609 222.67 46.0837 221.349 47.7392C220.037 49.3821 218.065 50.2167 215.485 50.2167ZM215.8 24.895C210.906 24.895 207.02 26.3285 204.251 29.1557C201.483 31.9833 200.078 35.8962 200.078 40.7868C200.078 45.4338 201.449 49.1683 204.152 51.8903C206.855 54.6133 210.533 55.9926 215.084 55.9926C219.826 55.9926 223.635 54.5391 226.404 51.6727C229.172 48.8095 230.576 44.9335 230.576 40.1572C230.576 35.4394 229.259 31.6752 226.661 28.9713C224.062 26.2662 220.407 24.895 215.8 24.895ZM189.354 30.7476V25.6097H182.375V55.2773H189.354V40.1012C189.354 37.5206 189.939 35.4006 191.093 33.7993C192.233 32.2171 193.752 31.4154 195.607 31.4154C196.235 31.4154 196.941 31.519 197.705 31.7241C198.462 31.9279 199.009 32.1492 199.332 32.3821L199.626 32.5947V25.559L199.513 25.5105C198.863 25.2344 197.943 25.0951 196.78 25.0951C195.026 25.0951 193.457 25.6586 192.113 26.768C190.933 27.7432 190.08 29.0803 189.428 30.7476H189.354ZM169.877 24.895C166.676 24.895 163.82 25.5816 161.391 26.9349C158.957 28.2914 157.075 30.228 155.794 32.6905C154.519 35.147 153.871 38.0165 153.871 41.2166C153.871 44.0197 154.499 46.5921 155.74 48.8593C156.981 51.1302 158.738 52.9068 160.962 54.139C163.183 55.3696 165.749 55.9936 168.591 55.9936C171.908 55.9936 174.74 55.3305 177.01 54.0229L177.102 53.9703V47.5767L176.808 47.7908C175.78 48.54 174.631 49.1379 173.394 49.5687C172.161 49.9991 171.036 50.2167 170.05 50.2167C167.312 50.2167 165.113 49.3599 163.518 47.6706C161.919 45.9792 161.108 43.604 161.108 40.6152C161.108 37.6077 161.953 35.1715 163.62 33.3739C165.281 31.5816 167.484 30.6725 170.165 30.6725C172.459 30.6725 174.694 31.4492 176.809 32.9832L177.102 33.1957V26.4591L177.007 26.4058C176.211 25.9604 175.126 25.5925 173.778 25.3136C172.437 25.0353 171.124 24.895 169.877 24.895ZM149.065 25.61H142.086V55.2773H149.065V25.61ZM145.647 12.9716C144.498 12.9716 143.497 13.3626 142.674 14.1374C141.847 14.9144 141.428 15.8927 141.428 17.0473C141.428 18.1837 141.842 19.1441 142.661 19.9005C143.474 20.6546 144.479 21.0369 145.647 21.0369C146.815 21.0369 147.824 20.6546 148.647 19.9017C149.475 19.1441 149.896 18.184 149.896 17.0473C149.896 15.9331 149.487 14.9648 148.681 14.1687C147.876 13.3742 146.855 12.9716 145.647 12.9716ZM128.235 23.4211V55.2773H135.357V13.8798H125.5L112.97 44.6286L100.812 13.8798H90.553V55.277H97.2458V23.418H97.4756L110.315 55.2773H115.366L128.005 23.4211H128.235Z" fill="#706D6E"/>
<path d="M33.5946 32.8752H0.764893V0.0454102H33.5946V32.8752Z" fill="#F1511B"/>
<path d="M69.8423 32.8757H37.0132V0.0458984H69.8423V32.8757Z" fill="#80CC28"/>
<path d="M33.5937 69.1356H0.764893V36.3062H33.5937V69.1356Z" fill="#00ADEF"/>
<path d="M69.8423 69.1356H37.0132V36.3062H69.8423V69.1356Z" fill="#FBBC09"/>
</svg>
