<svg width="389" height="70" viewBox="0 0 389 70" fill="none" xmlns="http://www.w3.org/2000/svg">
<g clip-path="url(#clip0_1493_405)">
<path d="M55.8985 6.59326H3.93563C2.1906 6.59326 0.704102 8.07977 0.704102 9.88942V15.7708C0.704102 17.5804 2.1906 19.0669 3.93563 19.0669H55.8985C57.7082 19.0669 59.1301 17.5804 59.1947 15.7708V9.95405C59.1947 8.07976 57.7082 6.59326 55.8985 6.59326ZM55.8985 39.2317H3.93563C3.09543 39.2317 2.25523 39.5548 1.67356 40.2011C1.02725 40.8474 0.704102 41.623 0.704102 42.5278V48.4092C0.704102 50.2188 2.1906 51.7053 3.93563 51.7053H55.8985C57.7082 51.7053 59.1301 50.2835 59.1947 48.4092V42.5278C59.1301 40.6535 57.7082 39.2317 55.8985 39.2317ZM33.2132 55.5185H3.93563C3.09543 55.5185 2.25523 55.8417 1.67356 56.488C1.09188 57.1343 0.704102 57.9099 0.704102 58.8147V64.6961C0.704102 66.5057 2.1906 67.9922 3.93563 67.9922H33.1486C34.9583 67.9922 36.3801 66.5057 36.3801 64.7607V58.8793C36.4448 56.9404 35.0229 55.4539 33.2132 55.5185ZM59.1947 22.8801H3.93563C3.09543 22.8801 2.25523 23.2033 1.67356 23.8496C1.09188 24.4959 0.704102 25.2715 0.704102 26.1763V32.0577C0.704102 33.8673 2.1906 35.3538 3.93563 35.3538H59.1301C60.9397 35.3538 62.3616 33.8673 62.3616 32.0577V26.1763C62.4262 24.3666 60.9397 22.9448 59.1947 22.8801Z" fill="#00C3F7"/>
<path d="M119.624 19.7774C118.008 18.097 116.134 16.8044 114.001 15.8996C111.868 14.9948 109.606 14.5423 107.28 14.5423C105.018 14.4777 102.82 14.9948 100.752 15.9642C99.3948 16.6105 98.1668 17.5154 97.1327 18.6141V17.58C97.1327 17.0629 96.9388 16.5459 96.6157 16.1581C96.2925 15.7703 95.7755 15.5118 95.1938 15.5118H88.0198C87.5028 15.5118 86.9857 15.7057 86.6626 16.1581C86.2748 16.5459 86.0809 17.0629 86.1455 17.58V65.9236C86.1455 66.4406 86.3394 66.9577 86.6626 67.3455C87.0504 67.7333 87.5028 67.9271 88.0198 67.9271H95.3877C95.9048 67.9271 96.3572 67.7333 96.7449 67.3455C97.1327 67.0223 97.3913 66.5053 97.3266 65.9236V49.3782C98.3607 50.5415 99.718 51.3817 101.204 51.8988C103.143 52.6097 105.147 52.9975 107.215 52.9975C109.542 52.9975 111.868 52.5451 114.001 51.6403C116.134 50.7354 118.073 49.4428 119.689 47.7624C121.369 46.0174 122.662 43.9492 123.567 41.6872C124.601 39.1666 125.053 36.4521 124.988 33.7376C125.053 31.0231 124.536 28.3086 123.567 25.7234C122.597 23.5906 121.305 21.5224 119.624 19.7774ZM113.032 37.2923C112.644 38.3264 112.062 39.2312 111.287 40.0714C109.8 41.6872 107.668 42.592 105.47 42.592C104.371 42.592 103.273 42.3981 102.239 41.881C101.269 41.4286 100.364 40.847 99.5887 40.0714C98.8131 39.2958 98.2315 38.3264 97.8437 37.2923C97.0035 35.0949 97.0035 32.7035 97.8437 30.5061C98.2315 29.472 98.8778 28.5672 99.5887 27.7916C100.364 27.016 101.269 26.3697 102.239 25.9173C103.273 25.4649 104.371 25.2064 105.47 25.2064C106.633 25.2064 107.668 25.4003 108.766 25.9173C109.736 26.3697 110.641 26.9514 111.351 27.727C112.127 28.5025 112.644 29.4074 113.096 30.4415C113.872 32.7035 113.807 35.0949 113.032 37.2923ZM164.478 15.5764H157.174C156.657 15.5764 156.14 15.7703 155.817 16.1581C155.429 16.5459 155.236 17.0629 155.236 17.6446V18.5494C154.331 17.4507 153.167 16.6105 151.939 16.0289C149.936 15.0594 147.738 14.607 145.541 14.607C140.823 14.607 136.363 16.4813 133.003 19.7774C131.258 21.5224 129.9 23.5906 128.996 25.8527C127.961 28.3733 127.444 31.0878 127.509 33.8669C127.444 36.5813 127.961 39.2958 128.996 41.881C129.965 44.1431 131.258 46.2113 133.003 47.9563C136.299 51.3171 140.823 53.1914 145.476 53.1914C147.674 53.256 149.871 52.739 151.875 51.7695C153.103 51.1232 154.331 50.283 155.236 49.2489V50.2184C155.236 50.7354 155.429 51.2525 155.817 51.6403C156.205 51.9634 156.657 52.2219 157.174 52.2219H164.478C164.995 52.2219 165.512 52.028 165.835 51.6403C166.223 51.2525 166.417 50.7354 166.417 50.2184V17.7092C166.417 17.1922 166.223 16.6752 165.9 16.2874C165.512 15.835 164.995 15.5764 164.478 15.5764ZM154.589 37.2923C154.201 38.3264 153.62 39.2312 152.844 40.0714C152.069 40.847 151.228 41.4933 150.259 41.9457C148.191 42.9151 145.799 42.9151 143.731 41.9457C142.762 41.4933 141.857 40.847 141.081 40.0714C140.306 39.2958 139.724 38.3264 139.336 37.2923C138.561 35.0949 138.561 32.7035 139.336 30.5061C139.724 29.472 140.306 28.6318 141.081 27.7916C141.857 27.016 142.697 26.3697 143.731 25.9173C145.799 24.9479 148.191 24.9479 150.194 25.9173C151.164 26.3697 152.069 26.9514 152.78 27.727C153.491 28.5025 154.072 29.4074 154.525 30.4415C155.429 32.7035 155.429 35.0949 154.589 37.2923ZM237.252 32.8974C236.218 31.9926 234.99 31.217 233.697 30.7C232.34 30.1183 230.853 29.7305 229.431 29.4074L223.873 28.3086C222.451 28.0501 221.417 27.6623 220.9 27.2099C220.448 26.8868 220.125 26.3697 220.125 25.7881C220.125 25.2064 220.448 24.6893 221.159 24.2369C222.128 23.7199 223.162 23.4614 224.261 23.526C225.683 23.526 227.105 23.8491 228.397 24.3662C229.69 24.9479 230.918 25.5295 232.081 26.3051C233.697 27.3392 235.119 27.1453 236.088 25.982L238.738 22.9443C239.255 22.4273 239.514 21.781 239.578 21.07C239.514 20.2945 239.126 19.6482 238.544 19.1311C237.446 18.1617 235.636 17.1276 233.245 16.0935C230.853 15.0594 227.816 14.5423 224.261 14.5423C222.063 14.4777 219.931 14.8009 217.863 15.4472C216.117 16.0288 214.437 16.869 212.951 17.9678C211.593 19.0019 210.559 20.2945 209.784 21.8456C209.073 23.3321 208.685 24.9479 208.685 26.5636C208.685 29.6013 209.59 32.0572 211.399 33.8669C213.209 35.6765 215.6 36.9045 218.573 37.4862L224.39 38.7788C225.618 38.9727 226.911 39.3605 228.074 39.9421C228.72 40.2006 229.108 40.847 229.108 41.5579C229.108 42.2042 228.785 42.7859 228.074 43.3029C227.363 43.82 226.2 44.1431 224.649 44.1431C223.098 44.1431 221.482 43.82 220.06 43.109C218.703 42.4627 217.475 41.6225 216.311 40.6531C215.794 40.2653 215.277 39.9421 214.631 39.6836C213.985 39.4897 213.144 39.6836 212.304 40.3946L209.137 42.7859C208.233 43.4322 207.78 44.5309 208.039 45.565C208.233 46.6637 209.073 47.6978 210.689 48.9258C214.696 51.6403 219.478 53.0621 224.326 52.9329C226.588 52.9329 228.85 52.6743 230.982 52.028C232.857 51.4464 234.602 50.6062 236.153 49.4428C237.575 48.4087 238.738 47.0515 239.514 45.4357C240.289 43.8846 240.677 42.2042 240.677 40.4592C240.742 38.9081 240.419 37.3569 239.772 35.935C239.126 34.901 238.286 33.8022 237.252 32.8974ZM269.179 41.7518C268.856 41.1701 268.274 40.7823 267.563 40.6531C266.917 40.6531 266.206 40.847 265.689 41.2347C264.784 41.8164 263.75 42.1396 262.716 42.2042C262.393 42.2042 262.005 42.1396 261.682 42.0749C261.294 42.0103 260.971 41.8164 260.713 41.5579C260.389 41.2347 260.131 40.847 259.937 40.4592C259.678 39.8129 259.549 39.1666 259.614 38.5203V25.271H269.05C269.632 25.271 270.149 25.0125 270.536 24.6247C270.924 24.2369 271.183 23.7845 271.183 23.2028V17.58C271.183 16.9983 270.989 16.4813 270.536 16.1581C270.149 15.7703 269.632 15.5764 269.114 15.5764H259.614V6.52817C259.614 6.01113 259.42 5.42945 259.032 5.10629C258.644 4.78314 258.192 4.58925 257.675 4.52462H250.307C249.79 4.52462 249.273 4.71851 248.885 5.10629C248.497 5.49408 248.239 6.01113 248.239 6.52817V15.5764H244.038C243.521 15.5764 243.004 15.7703 242.616 16.2227C242.293 16.6105 242.099 17.1276 242.099 17.6446V23.2675C242.099 23.7845 242.293 24.3016 242.616 24.6893C242.939 25.1418 243.456 25.3357 244.038 25.3357H248.239V41.1055C248.174 42.9798 248.562 44.8541 249.338 46.5344C250.048 47.9563 250.953 49.1843 252.181 50.2184C253.345 51.1879 254.702 51.8988 256.188 52.2866C257.675 52.739 259.226 52.9975 260.777 52.9975C262.781 52.9975 264.849 52.6743 266.788 52.028C268.597 51.4464 270.213 50.4123 271.506 49.055C272.346 48.2148 272.411 46.8576 271.764 45.8881L269.179 41.7518ZM309.121 15.5764H301.818C301.3 15.5764 300.848 15.7703 300.46 16.1581C300.072 16.5459 299.879 17.0629 299.879 17.6446V18.5494C298.974 17.4507 297.875 16.6105 296.582 16.0289C294.579 15.0594 292.381 14.607 290.184 14.607C285.466 14.607 281.006 16.4813 277.646 19.7774C275.901 21.5224 274.543 23.5906 273.639 25.8527C272.605 28.3733 272.087 31.0877 272.152 33.8022C272.087 36.5167 272.605 39.2312 273.639 41.8164C274.543 44.0785 275.965 46.1467 277.646 47.8917C280.942 51.2525 285.401 53.1268 290.119 53.1268C292.317 53.1914 294.514 52.6743 296.518 51.7695C297.81 51.1232 298.974 50.283 299.879 49.2489V50.2184C299.879 50.7354 300.072 51.2525 300.46 51.5756C300.848 51.9634 301.3 52.1573 301.818 52.1573H309.121C310.219 52.1573 311.06 51.3171 311.06 50.2184V17.7092C311.06 17.1922 310.866 16.6752 310.543 16.2874C310.219 15.835 309.702 15.5764 309.121 15.5764ZM299.297 37.2923C298.909 38.3264 298.327 39.2312 297.552 40.0714C296.776 40.847 295.936 41.4933 294.967 41.9457C293.933 42.3981 292.834 42.6566 291.671 42.6566C290.507 42.6566 289.473 42.3981 288.439 41.9457C287.47 41.4933 286.565 40.847 285.789 40.0714C285.014 39.2958 284.432 38.3264 284.109 37.2923C283.333 35.0949 283.333 32.7035 284.109 30.5061C284.497 29.472 285.078 28.5672 285.789 27.7916C286.565 27.016 287.47 26.3697 288.439 25.9173C289.473 25.4649 290.572 25.2064 291.671 25.2064C292.769 25.2064 293.868 25.4003 294.967 25.9173C295.936 26.3697 296.776 26.9514 297.552 27.727C298.327 28.5025 298.909 29.4074 299.297 30.4415C300.137 32.6389 300.137 35.0949 299.297 37.2923ZM349.192 41.2347L344.991 38.0032C344.215 37.3569 343.44 37.163 342.793 37.4215C342.212 37.6801 341.695 38.0679 341.242 38.5203C340.337 39.619 339.239 40.5884 338.075 41.4286C336.783 42.1396 335.425 42.5274 334.004 42.3981C332.323 42.3981 330.772 41.9457 329.415 40.9762C328.057 40.0068 327.023 38.7142 326.506 37.0984C326.119 35.9997 325.925 34.9009 325.925 33.8022C325.925 32.6389 326.119 31.5402 326.506 30.3768C326.894 29.3427 327.411 28.4379 328.187 27.6623C328.962 26.8868 329.803 26.2405 330.772 25.8527C331.806 25.4003 332.905 25.1417 334.068 25.1417C335.49 25.0771 336.912 25.4649 338.14 26.1758C339.368 26.9514 340.402 27.9209 341.307 29.0842C341.695 29.5366 342.212 29.9244 342.793 30.1829C343.44 30.4415 344.215 30.2476 344.991 29.6012L349.192 26.4344C349.709 26.1112 350.096 25.5942 350.29 25.0125C350.549 24.3662 350.484 23.6553 350.096 23.0736C348.481 20.553 346.283 18.4848 343.633 16.9983C340.854 15.4472 337.558 14.607 333.874 14.607C331.289 14.607 328.704 15.124 326.248 16.0935C323.921 17.0629 321.853 18.4202 320.108 20.1652C318.363 21.9102 316.941 23.9784 315.972 26.3051C313.968 31.1524 313.968 36.5814 315.972 41.4286C316.941 43.6907 318.298 45.8235 320.108 47.5039C323.792 51.1232 328.704 53.0621 333.874 53.0621C337.558 53.0621 340.854 52.2219 343.633 50.6708C346.283 49.1843 348.545 47.1161 350.161 44.5309C350.484 43.9492 350.549 43.2383 350.355 42.6566C350.096 42.1396 349.709 41.6225 349.192 41.2347ZM388.099 48.7965L376.53 31.8633L386.419 18.808C386.871 18.2263 387.065 17.3861 386.807 16.6752C386.613 16.1581 386.16 15.6411 384.932 15.6411H377.112C376.66 15.6411 376.207 15.7703 375.819 15.9642C375.302 16.2227 374.915 16.6105 374.656 17.0629L366.771 28.1148H364.897V2.00404C364.897 1.48699 364.703 0.969942 364.315 0.582159C363.927 0.194376 363.475 0.000488281 362.958 0.000488281H355.655C355.138 0.000488281 354.621 0.194376 354.233 0.582159C353.845 0.969942 353.651 1.42236 353.651 2.00404V50.1538C353.651 50.7354 353.845 51.1878 354.233 51.5756C354.621 51.9634 355.138 52.1573 355.655 52.1573H362.958C363.475 52.1573 363.992 51.9634 364.315 51.5756C364.703 51.1878 364.897 50.6708 364.897 50.1538V37.4215H366.965L375.561 50.6062C376.078 51.5756 377.047 52.1573 378.082 52.1573H386.29C387.518 52.1573 388.035 51.5756 388.293 51.0586C388.616 50.283 388.552 49.4428 388.099 48.7965ZM205.97 15.5764H197.762C197.116 15.5764 196.534 15.7703 196.082 16.2227C195.694 16.6105 195.436 17.0629 195.306 17.58L189.231 40.0714H187.745L181.282 17.58C181.152 17.1276 180.958 16.6752 180.635 16.2227C180.248 15.7703 179.731 15.5118 179.149 15.5118H170.812C169.713 15.5118 169.066 15.835 168.743 16.6105C168.549 17.2568 168.549 17.9678 168.743 18.6141L179.084 50.283C179.278 50.7354 179.472 51.2525 179.86 51.5756C180.248 51.9634 180.829 52.1573 181.411 52.1573H185.806L185.418 53.1914L184.449 56.0998C184.125 57.0046 183.608 57.7801 182.833 58.3618C182.122 58.8789 181.282 59.202 180.377 59.1374C179.601 59.1374 178.89 58.9435 178.179 58.685C177.468 58.3618 176.822 57.974 176.24 57.5216C175.723 57.1338 175.077 56.94 174.366 56.94H174.302C173.526 57.0046 172.815 57.3924 172.427 58.1033L169.842 61.9165C168.808 63.5969 169.39 64.631 170.036 65.2127C171.458 66.5053 173.074 67.4747 174.883 68.0564C176.887 68.7673 178.955 69.0905 181.023 69.0905C184.772 69.0905 187.874 68.0564 190.265 66.0529C192.721 63.8554 194.596 61.0117 195.5 57.7801L207.522 18.6141C207.78 17.9031 207.845 17.1922 207.586 16.5459C207.522 16.0935 207.069 15.5764 205.97 15.5764Z" fill="#011B33"/>
</g>
<defs>
<clipPath id="clip0_1493_405">
<rect width="387.791" height="69.09" fill="white" transform="matrix(-1 0 0 1 388.495 0.000488281)"/>
</clipPath>
</defs>
</svg>
