<svg id="Layer_1" data-name="Layer 1" xmlns="http://www.w3.org/2000/svg" viewBox="0 0 124.08 37.46"><defs><style>.cls-1{fill:#0047af;}</style></defs><path class="cls-1" d="M150.14,192.37v37.46H187.6V192.37Zm21.05,29.77h-4.64V200.06h4.64Z" transform="translate(-150.14 -192.37)"/><path class="cls-1" d="M193.22,192.37v37.46h37.46V192.37Zm27.72,29.77h-5.26l-3.48-15.58a11.4,11.4,0,0,1-.22-1.46h-.12a9.88,9.88,0,0,1-.16,1.46l-3.48,15.58H203l-5.35-22.08h4.69l3.14,15.27a12,12,0,0,1,.22,1.68h.09a10.83,10.83,0,0,1,.28-1.68l3.58-15.27h4.66l3.61,15.27a9.37,9.37,0,0,1,.25,1.68h.09a8.72,8.72,0,0,1,.22-1.68l3.14-15.27h4.69Z" transform="translate(-150.14 -192.37)"/><path class="cls-1" d="M260.29,206.37c0-1.58-.93-3-3.57-3H252.8v5.85h3.92C259.45,209.27,260.29,207.87,260.29,206.37Z" transform="translate(-150.14 -192.37)"/><path class="cls-1" d="M257.28,212.5H252.8v6.28h4.32c2.67,0,3.73-1.46,3.73-3.2S259.7,212.5,257.28,212.5Z" transform="translate(-150.14 -192.37)"/><path class="cls-1" d="M236.76,192.37v37.46h37.46V192.37Zm21.45,29.77h-10V200.06h9.57c5.26,0,7.34,2.68,7.34,5.72a4.9,4.9,0,0,1-3.89,4.88,5,5,0,0,1,4.48,5.32C265.67,219.28,263.4,222.14,258.21,222.14Z" transform="translate(-150.14 -192.37)"/></svg>