<svg width="158" height="108" viewBox="0 0 158 108" fill="none" xmlns="http://www.w3.org/2000/svg">
<path d="M0.638143 50.5C0.638143 23.2382 22.7382 1.13814 50 1.13814H108C135.262 1.13814 157.362 23.2382 157.362 50.5V106.862H50C22.7382 106.862 0.638143 84.7618 0.638143 57.5V50.5Z" fill="#0047AF"/>
<path d="M59 34C59 31.8783 59.8429 29.8434 61.3431 28.3431C62.8434 26.8429 64.8783 26 67 26C69.1217 26 71.1566 26.8429 72.6569 28.3431C74.1571 29.8434 75 31.8783 75 34C75 36.1217 74.1571 38.1566 72.6569 39.6569C71.1566 41.1571 69.1217 42 67 42C64.8783 42 62.8434 41.1571 61.3431 39.6569C59.8429 38.1566 59 36.1217 59 34ZM86.116 40.336L86.284 40.464C87.9812 41.722 90.1071 42.2577 92.1977 41.954C94.2884 41.6504 96.174 40.5322 97.4432 38.8433C98.7124 37.1545 99.2621 35.0322 98.9723 32.9396C98.6825 30.847 97.5767 28.954 95.8963 27.6736C94.2159 26.3933 92.0972 25.8297 90.0028 26.1057C87.9083 26.3817 86.008 27.4749 84.7166 29.1469C83.4252 30.8188 82.8476 32.9336 83.1098 35.0299C83.3719 37.1262 84.4526 39.0336 86.116 40.336ZM72.072 46C72.5744 45.0487 73.2635 44.2084 74.0982 43.5296C74.9328 42.8507 75.8958 42.3472 76.9296 42.0491C77.9633 41.751 79.0465 41.6645 80.1145 41.7947C81.1824 41.9249 82.2131 42.2692 83.1449 42.807C84.0768 43.3448 84.8905 44.0649 85.5376 44.9245C86.1846 45.784 86.6516 46.7652 86.9107 47.8094C87.1698 48.8536 87.2156 49.9394 87.0454 51.0017C86.8751 52.064 86.4924 53.081 85.92 53.992C84.8189 55.7445 83.0814 57.0021 81.0726 57.5005C79.0637 57.9989 76.9399 57.6993 75.1473 56.6648C73.3547 55.6302 72.0328 53.9411 71.4593 51.9524C70.8859 49.9637 71.1055 47.8302 72.072 46ZM57 46H67.68C66.9691 48.0302 66.8145 50.2137 67.2323 52.3239C67.6501 54.434 68.6251 56.3939 70.056 58H69C66.9377 57.9997 64.9258 58.6368 63.2395 59.8239C61.5533 61.0111 60.2751 62.6904 59.58 64.632C58.2373 64.0926 56.9802 63.361 55.848 62.46C52.84 60.04 51 56.464 51 52C51 50.4087 51.6321 48.8826 52.7574 47.7574C53.8826 46.6321 55.4087 46 57 46ZM89 58C91.0617 58 93.073 58.6372 94.7586 59.8244C96.4442 61.0116 97.7216 62.6907 98.416 64.632C99.776 64.076 101.036 63.352 102.152 62.46C105.16 60.04 107 56.464 107 52C107 50.4087 106.368 48.8826 105.243 47.7574C104.117 46.6321 102.591 46 101 46H90.32C90.76 47.252 91 48.6 91 50C91.0037 52.9525 89.9152 55.8019 87.944 58H89ZM94.548 65.712C94.84 66.416 95 67.192 95 68C95 72.464 93.164 76.04 90.152 78.46C87.188 80.84 83.212 82 79 82C74.788 82 70.812 80.84 67.848 78.46C64.84 76.04 63 72.464 63 68C62.9979 67.2115 63.1516 66.4303 63.4524 65.7014C63.7532 64.9725 64.1951 64.3102 64.7527 63.7527C65.3102 63.1951 65.9725 62.7532 66.7014 62.4524C67.4303 62.1516 68.2115 61.9979 69 62H89C90.1884 61.9997 91.3501 62.3524 92.3379 63.0132C93.3256 63.6741 94.0948 64.6134 94.548 65.712Z" fill="white"/>
<path d="M0.638143 50.5C0.638143 23.2382 22.7382 1.13814 50 1.13814H108C135.262 1.13814 157.362 23.2382 157.362 50.5V106.862H50C22.7382 106.862 0.638143 84.7618 0.638143 57.5V50.5Z" stroke="#0047AF" stroke-width="1.27629"/>
</svg>
