<svg width="50" height="42" viewBox="0 0 50 42" fill="none" xmlns="http://www.w3.org/2000/svg">
<path d="M25 0C24.0629 -1.36897e-08 23.135 0.180951 22.2693 0.532523C21.4035 0.884094 20.6169 1.3994 19.9543 2.04902C19.2917 2.69864 18.7661 3.46985 18.4075 4.31862C18.0489 5.16739 17.8643 6.07709 17.8643 6.99579C17.8643 7.91449 18.0489 8.8242 18.4075 9.67297C18.7661 10.5217 19.2917 11.2929 19.9543 11.9426C20.6169 12.5922 21.4035 13.1075 22.2693 13.4591C23.135 13.8106 24.0629 13.9916 25 13.9916C26.8925 13.9916 28.7075 13.2545 30.0457 11.9426C31.3839 10.6306 32.1357 8.85119 32.1357 6.99579C32.1357 5.14039 31.3839 3.36098 30.0457 2.04902C28.7075 0.737054 26.8925 0 25 0ZM41.0714 3.49439C39.6506 3.49439 38.288 4.04774 37.2834 5.0327C36.2787 6.01766 35.7143 7.35355 35.7143 8.74649C35.7143 10.1394 36.2787 11.4753 37.2834 12.4603C38.288 13.4452 39.6506 13.9986 41.0714 13.9986C42.4922 13.9986 43.8548 13.4452 44.8595 12.4603C45.8642 11.4753 46.4286 10.1394 46.4286 8.74649C46.4286 7.35355 45.8642 6.01766 44.8595 5.0327C43.8548 4.04774 42.4922 3.49439 41.0714 3.49439ZM8.92857 3.49439C7.50777 3.49439 6.14516 4.04774 5.1405 5.0327C4.13584 6.01766 3.57143 7.35355 3.57143 8.74649C3.57143 10.1394 4.13584 11.4753 5.1405 12.4603C6.14516 13.4452 7.50777 13.9986 8.92857 13.9986C10.3494 13.9986 11.712 13.4452 12.7166 12.4603C13.7213 11.4753 14.2857 10.1394 14.2857 8.74649C14.2857 7.35355 13.7213 6.01766 12.7166 5.0327C11.712 4.04774 10.3494 3.49439 8.92857 3.49439ZM14.2857 20.9769C14.2923 20.0525 14.6715 19.1682 15.3406 18.5168C16.0096 17.8655 16.9143 17.5 17.8571 17.5H32.1429C33.0901 17.5 33.9985 17.8689 34.6682 18.5255C35.338 19.1822 35.7143 20.0728 35.7143 21.0014V31.5056C35.714 32.6075 35.5381 33.7027 35.1929 34.7514C34.402 37.1278 32.773 39.15 30.5983 40.4548C28.4235 41.7596 25.8455 42.2616 23.3272 41.8707C20.8089 41.4797 18.5153 40.2214 16.8581 38.3217C15.201 36.4219 14.2889 34.0053 14.2857 31.5056V20.9769ZM10.7143 21.0014C10.7143 19.7234 11.0607 18.5294 11.6714 17.5H3.57143C2.62423 17.5 1.71582 17.8689 1.04605 18.5255C0.376275 19.1822 4.94333e-07 20.0728 4.94333e-07 21.0014V29.7549C-0.000485885 31.188 0.35795 32.5993 1.04383 33.8649C1.72971 35.1305 2.72206 36.2117 3.93372 37.0134C5.14539 37.8151 6.5393 38.3129 7.99306 38.4631C9.44682 38.6133 10.9159 38.4112 12.2714 37.8746C11.2435 35.9018 10.7097 33.7173 10.7143 31.5021V21.0014ZM39.2857 21.0014V31.5056C39.2857 33.799 38.725 35.9628 37.7286 37.8746C39.0841 38.4112 40.5532 38.6133 42.0069 38.4631C43.4607 38.3129 44.8546 37.8151 46.0663 37.0134C47.2779 36.2117 48.2703 35.1305 48.9562 33.8649C49.6421 32.5993 50.0005 31.188 50 29.7549V21.0014C50 20.0728 49.6237 19.1822 48.954 18.5255C48.2842 17.8689 47.3758 17.5 46.4286 17.5H38.3286C38.9357 18.5294 39.2857 19.7234 39.2857 21.0014Z" fill="#F8F8F8"/>
</svg>
