<svg width="24" height="42" viewBox="0 0 24 42" fill="none" xmlns="http://www.w3.org/2000/svg">
<path d="M9.58377 36.0056V36.4465V39.375C9.58377 40.5553 10.5263 41.5 11.6838 41.5C12.8413 41.5 13.7838 40.5553 13.7838 39.375V36.5285V36.0862L14.2228 36.0322C15.3937 35.8885 16.5056 35.6342 17.5153 35.2421L17.5164 35.2417C20.0828 34.2524 22.1996 32.3344 22.7454 29.3606C23.0396 27.6945 22.8953 26.1611 22.2717 24.8108L22.2717 24.8107C21.6543 23.4729 20.6558 22.4956 19.5626 21.7597C17.5465 20.4108 14.8035 19.6497 12.478 19.0131L12.4714 19.0113L12.4714 19.0113L12.2468 18.9465C9.66092 18.233 7.54621 17.6311 6.14771 16.6898L6.14639 16.6889C5.50057 16.2512 5.1287 15.8188 4.92634 15.3886L4.92611 15.3882C4.727 14.9638 4.61263 14.3549 4.7807 13.3993L4.78118 13.3966C4.9957 12.2153 5.75935 11.2717 7.25973 10.6531C7.25985 10.6531 7.25997 10.653 7.26009 10.653L7.45064 11.1152C8.89689 10.5164 11.0338 10.2949 13.6256 10.6805C15.2425 10.943 18.0375 11.6895 19.7356 12.4523C21.0438 13.043 22.5794 12.4441 23.1644 11.1234C23.7494 9.80273 23.1644 8.25234 21.8481 7.66172C19.6544 6.67734 16.3963 5.81602 14.4138 5.5043L9.58377 36.0056ZM9.58377 36.0056L9.14637 35.9504C9.01816 35.9342 8.90898 35.9194 8.79489 35.8978L8.78609 35.8961L8.77722 35.8948C7.90996 35.7626 5.37664 35.3477 4.34915 35.0844L4.34805 35.0841C3.23054 34.8004 2.54076 33.6473 2.82536 32.4979C3.10814 31.3559 4.24873 30.6753 5.37656 30.959C6.16488 31.164 8.49028 31.5446 9.39869 31.6826L9.39913 31.6827C12.0627 32.0848 14.391 31.8924 16.0327 31.2525C17.6383 30.6323 18.4104 29.7015 18.611 28.5773L18.6112 28.5761C18.7793 27.6204 18.6649 27.0116 18.4658 26.5872L18.4656 26.5868C18.2632 26.1566 17.8913 25.7242 17.2455 25.2865L17.2442 25.2856C15.8457 24.3443 13.731 23.7424 11.1452 23.0289L10.9205 22.9641L10.9205 22.9641L10.9139 22.9623C8.58825 22.3257 5.84495 21.5645 3.82878 20.2154C2.73579 19.4795 1.7375 18.5023 1.12026 17.1647L1.1202 17.1646C0.496492 15.8141 0.352293 14.2804 0.646622 12.614C1.17096 9.69996 3.15637 7.73723 5.67532 6.69649C6.74006 6.2571 7.90483 5.97186 9.14903 5.82876L9.5919 5.77782V5.33203V2.625C9.5919 1.44467 10.5344 0.5 11.6919 0.5C12.8494 0.5 13.7919 1.44467 13.7919 2.625V5.48789V5.87737L14.1695 5.97269C14.2005 5.98051 14.2277 5.98497 14.2462 5.98764C14.2632 5.99009 14.2793 5.9919 14.2875 5.99282L14.289 5.99298C14.29 5.9931 14.2909 5.9932 14.2918 5.9933L14.3354 6.0043H14.3744L9.58377 36.0056Z" fill="#FAFAFA" stroke="#FAFAFA"/>
</svg>
