<svg width="158" height="108" viewBox="0 0 158 108" fill="none" xmlns="http://www.w3.org/2000/svg">
<path d="M0.638143 50.9042C0.638143 23.6424 22.7382 1.54232 50 1.54232H108C135.262 1.54232 157.362 23.6424 157.362 50.9042V107.266H50C22.7382 107.266 0.638143 85.166 0.638143 57.9042V50.9042Z" fill="#0047AF"/>
<path d="M76.3333 38.4051H84.3333L93.1066 29.6051C93.3545 29.3551 93.6495 29.1568 93.9744 29.0214C94.2994 28.886 94.6479 28.8163 95 28.8163C95.352 28.8163 95.7005 28.886 96.0255 29.0214C96.3504 29.1568 96.6454 29.3551 96.8933 29.6051L103.773 36.5117C104.27 37.0114 104.549 37.6873 104.549 38.3917C104.549 39.0962 104.27 39.7721 103.773 40.2717L97.6666 46.4051H76.3333V51.7384C76.3333 52.4457 76.0523 53.1239 75.5522 53.624C75.0521 54.1241 74.3739 54.4051 73.6666 54.4051C72.9594 54.4051 72.2811 54.1241 71.781 53.624C71.2809 53.1239 71 52.4457 71 51.7384V43.7384C71 42.3239 71.5619 40.9674 72.562 39.9672C73.5622 38.967 74.9188 38.4051 76.3333 38.4051ZM60.3333 51.7384V62.4051L54.2266 68.5117C53.7299 69.0114 53.4512 69.6873 53.4512 70.3918C53.4512 71.0962 53.7299 71.7721 54.2266 72.2718L61.1066 79.1784C61.3545 79.4284 61.6495 79.6267 61.9744 79.7621C62.2994 79.8975 62.6479 79.9672 63 79.9672C63.352 79.9672 63.7005 79.8975 64.0255 79.7621C64.3504 79.6267 64.6454 79.4284 64.8933 79.1784L76.3333 67.7384H87C87.7072 67.7384 88.3855 67.4575 88.8856 66.9574C89.3857 66.4573 89.6666 65.779 89.6666 65.0717V62.4051H92.3333C93.0405 62.4051 93.7188 62.1241 94.2189 61.624C94.719 61.1239 95 60.4457 95 59.7384V57.0717H97.6666C98.3739 57.0717 99.0521 56.7908 99.5522 56.2907C100.052 55.7906 100.333 55.1123 100.333 54.4051V51.7384H81.6666V54.4051C81.6666 55.8196 81.1047 57.1761 80.1045 58.1763C79.1043 59.1765 77.7478 59.7384 76.3333 59.7384H71C69.5855 59.7384 68.2289 59.1765 67.2287 58.1763C66.2285 57.1761 65.6666 55.8196 65.6666 54.4051V46.4051L60.3333 51.7384Z" fill="white"/>
<path d="M0.638143 50.9042C0.638143 23.6424 22.7382 1.54232 50 1.54232H108C135.262 1.54232 157.362 23.6424 157.362 50.9042V107.266H50C22.7382 107.266 0.638143 85.166 0.638143 57.9042V50.9042Z" stroke="#0047AF" stroke-width="1.27629"/>
</svg>
