<svg width="42" height="42" viewBox="0 0 42 42" fill="none" xmlns="http://www.w3.org/2000/svg">
<path fill-rule="evenodd" clip-rule="evenodd" d="M20.9066 18.8161C22.5699 18.8161 24.165 18.1554 25.3412 16.9793C26.5173 15.8032 27.178 14.208 27.178 12.5447C27.178 10.8815 26.5173 9.2863 25.3412 8.11018C24.165 6.93407 22.5699 6.27333 20.9066 6.27333C19.2433 6.27333 17.6482 6.93407 16.4721 8.11018C15.2959 9.2863 14.6352 10.8815 14.6352 12.5447C14.6352 14.208 15.2959 15.8032 16.4721 16.9793C17.6482 18.1554 19.2433 18.8161 20.9066 18.8161ZM12.0198 37.6304C8.8461 37.6304 6.1727 34.9625 7.38722 32.0305C8.12261 30.2551 9.20049 28.6419 10.5593 27.2831C11.9181 25.9242 13.5313 24.8464 15.3067 24.111C17.0821 23.3756 18.9849 22.9971 20.9066 22.9971C22.8283 22.9971 24.7311 23.3756 26.5065 24.111C28.2819 24.8464 29.8951 25.9242 31.2539 27.2831C32.6127 28.6419 33.6906 30.2551 34.426 32.0305C35.6405 34.9625 32.9671 37.6304 29.7935 37.6304H12.0198Z" fill="white"/>
</svg>
