<svg width="44" height="42" viewBox="0 0 44 42" fill="none" xmlns="http://www.w3.org/2000/svg">
<path d="M37.8125 32.1602C38.7578 32.6328 39.61 33.2129 40.3691 33.9004C41.1283 34.5879 41.7728 35.3542 42.3027 36.1992C42.8327 37.0443 43.248 37.9609 43.5488 38.9492C43.8496 39.9375 44 40.9544 44 42H41.25C41.25 40.8685 41.0352 39.8014 40.6055 38.7988C40.1758 37.7962 39.5885 36.9225 38.8438 36.1777C38.099 35.4329 37.2181 34.8385 36.2012 34.3945C35.1842 33.9505 34.1172 33.7357 33 33.75C31.8542 33.75 30.7871 33.9648 29.7988 34.3945C28.8105 34.8242 27.9368 35.4115 27.1777 36.1562C26.4186 36.901 25.8242 37.7819 25.3945 38.7988C24.9648 39.8158 24.75 40.8828 24.75 42H22C22 40.9544 22.1432 39.9375 22.4297 38.9492C22.7161 37.9609 23.1315 37.0443 23.6758 36.1992C24.2201 35.3542 24.8717 34.5879 25.6309 33.9004C26.39 33.2129 27.2422 32.6328 28.1875 32.1602C27.1133 31.3867 26.2754 30.4199 25.6738 29.2598C25.0723 28.0996 24.7643 26.8464 24.75 25.5C24.75 24.3685 24.9648 23.3014 25.3945 22.2988C25.8242 21.2962 26.4115 20.4225 27.1562 19.6777C27.901 18.9329 28.7747 18.3385 29.7773 17.8945C30.7799 17.4505 31.8542 17.2357 33 17.25C34.1315 17.25 35.1986 17.4648 36.2012 17.8945C37.2038 18.3242 38.0775 18.9115 38.8223 19.6562C39.5671 20.401 40.1615 21.2819 40.6055 22.2988C41.0495 23.3158 41.2643 24.3828 41.25 25.5C41.25 26.8464 40.9492 28.0996 40.3477 29.2598C39.7461 30.4199 38.901 31.3867 37.8125 32.1602ZM33 31C33.7591 31 34.4681 30.8568 35.127 30.5703C35.7858 30.2839 36.373 29.89 36.8887 29.3887C37.4043 28.8874 37.7982 28.3073 38.0703 27.6484C38.3424 26.9896 38.4857 26.2734 38.5 25.5C38.5 24.7409 38.3568 24.0319 38.0703 23.373C37.7839 22.7142 37.39 22.127 36.8887 21.6113C36.3874 21.0957 35.8073 20.7018 35.1484 20.4297C34.4896 20.1576 33.7734 20.0143 33 20C32.2409 20 31.5319 20.1432 30.873 20.4297C30.2142 20.7161 29.627 21.11 29.1113 21.6113C28.5957 22.1126 28.2018 22.6927 27.9297 23.3516C27.6576 24.0104 27.5143 24.7266 27.5 25.5C27.5 26.2591 27.6432 26.9681 27.9297 27.627C28.2161 28.2858 28.61 28.873 29.1113 29.3887C29.6126 29.9043 30.1927 30.2982 30.8516 30.5703C31.5104 30.8424 32.2266 30.9857 33 31ZM22 32.7188C21.5417 33.2487 21.1263 33.8001 20.7539 34.373C20.3815 34.946 20.0521 35.5618 19.7656 36.2207C19.0065 35.4329 18.0898 34.8242 17.0156 34.3945C15.9414 33.9648 14.8529 33.75 13.75 33.75H5.5V6.25H2.75V36.5H19.6582C19.4577 36.944 19.293 37.3952 19.1641 37.8535C19.0352 38.3118 18.9277 38.7773 18.8418 39.25H0V3.5H5.5V0.75H13.75C15.0104 0.75 16.2207 0.943359 17.3809 1.33008C18.541 1.7168 19.6224 2.29688 20.625 3.07031C21.6133 2.29688 22.6875 1.7168 23.8477 1.33008C25.0078 0.943359 26.2253 0.75 27.5 0.75H35.75V3.5H41.25V17.25C40.4193 16.4336 39.5026 15.7533 38.5 15.209V6.25H35.75V14.1777C35.2917 14.0488 34.8333 13.9557 34.375 13.8984C33.9167 13.8411 33.4583 13.8125 33 13.8125V3.5H27.5C26.4974 3.5 25.5234 3.67188 24.5781 4.01562C23.6328 4.35938 22.7734 4.86784 22 5.54102V32.7188ZM19.25 32.4395V5.54102C18.4766 4.88216 17.6172 4.38086 16.6719 4.03711C15.7266 3.69336 14.7526 3.51432 13.75 3.5H8.25V31H13.75C14.7096 31 15.6549 31.1217 16.5859 31.3652C17.5169 31.6087 18.4049 31.9668 19.25 32.4395Z" fill="#F8F8F8"/>
</svg>
