<svg width="45" height="38" viewBox="0 0 45 38" fill="none" xmlns="http://www.w3.org/2000/svg">
<path d="M39 32V36C39 36.5667 38.808 37.0413 38.424 37.424C38.0413 37.808 37.5667 38 37 38C36.4333 38 35.9587 37.808 35.576 37.424C35.192 37.0413 35 36.5667 35 36V32H31C30.4333 32 29.9587 31.808 29.576 31.424C29.192 31.0413 29 30.5667 29 30C29 29.4333 29.192 28.9587 29.576 28.576C29.9587 28.192 30.4333 28 31 28H35V24C35 23.4333 35.192 22.958 35.576 22.574C35.9587 22.1913 36.4333 22 37 22C37.5667 22 38.0413 22.1913 38.424 22.574C38.808 22.958 39 23.4333 39 24V28H43C43.5667 28 44.0413 28.192 44.424 28.576C44.808 28.9587 45 29.4333 45 30C45 30.5667 44.808 31.0413 44.424 31.424C44.0413 31.808 43.5667 32 43 32H39ZM4.99999 32C4.43333 32 3.95866 31.808 3.57599 31.424C3.19199 31.0413 2.99999 30.5667 2.99999 30V20H2.64999C2.01666 20 1.49999 19.758 1.09999 19.274C0.699994 18.7913 0.566661 18.2333 0.699994 17.6L2.69999 7.6C2.79999 7.13333 3.03333 6.75 3.39999 6.45C3.76666 6.15 4.18333 6 4.64999 6H31.35C31.8167 6 32.2333 6.15 32.6 6.45C32.9667 6.75 33.2 7.13333 33.3 7.6L35.3 17.6C35.4333 18.2333 35.3 18.7913 34.9 19.274C34.5 19.758 33.9833 20 33.35 20H33V24C33 24.5667 32.808 25.0413 32.424 25.424C32.0413 25.808 31.5667 26 31 26C30.4333 26 29.9587 25.808 29.576 25.424C29.192 25.0413 29 24.5667 29 24V20H21V30C21 30.5667 20.8087 31.0413 20.426 31.424C20.042 31.808 19.5667 32 19 32H4.99999ZM6.99999 28H17V20H6.99999V28ZM4.99999 4C4.43333 4 3.95866 3.80867 3.57599 3.426C3.19199 3.042 2.99999 2.56667 2.99999 2C2.99999 1.43333 3.19199 0.958 3.57599 0.574C3.95866 0.191334 4.43333 0 4.99999 0H31C31.5667 0 32.0413 0.191334 32.424 0.574C32.808 0.958 33 1.43333 33 2C33 2.56667 32.808 3.042 32.424 3.426C32.0413 3.80867 31.5667 4 31 4H4.99999Z" fill="#FAFAFA"/>
</svg>
