<svg width="159" height="108" viewBox="0 0 159 108" fill="none" xmlns="http://www.w3.org/2000/svg">
<path d="M1.26998 50.5C1.26998 23.2382 23.37 1.13814 50.6318 1.13814H108.632C135.894 1.13814 157.994 23.2382 157.994 50.5V106.862H50.6318C23.37 106.862 1.26998 84.7618 1.26998 57.5V50.5Z" fill="#0047AF"/>
<path fill-rule="evenodd" clip-rule="evenodd" d="M55.6318 30H96.9652V36.6667H94.2985V32.6667H58.2985V63.3333H86.8145V66H55.6318V30ZM95.6318 47.3333C96.6927 47.3333 97.7101 46.9119 98.4603 46.1618C99.2104 45.4116 99.6318 44.3942 99.6318 43.3333C99.6318 42.2725 99.2104 41.2551 98.4603 40.5049C97.7101 39.7548 96.6927 39.3333 95.6318 39.3333C94.571 39.3333 93.5536 39.7548 92.8034 40.5049C92.0533 41.2551 91.6318 42.2725 91.6318 43.3333C91.6318 44.3942 92.0533 45.4116 92.8034 46.1618C93.5536 46.9119 94.571 47.3333 95.6318 47.3333ZM98.3398 50.0133C100.072 50.0133 101.443 50.792 102.34 51.9947C103.179 53.1213 103.533 54.5147 103.613 55.8013C103.692 57.1212 103.512 58.4436 103.084 59.6947C102.684 60.8547 102.008 62.0547 100.965 62.8773V76C100.966 76.5025 100.778 76.9869 100.438 77.357C100.098 77.727 99.6312 77.9555 99.1304 77.997C98.6296 78.0385 98.1315 77.89 97.7353 77.581C97.339 77.272 97.0736 76.8251 96.9918 76.3293L95.2718 66H94.8745L92.9305 76.368C92.8382 76.8573 92.5667 77.2946 92.169 77.5944C91.7714 77.8941 91.2762 78.0347 90.7804 77.9887C90.2845 77.9427 89.8237 77.7133 89.488 77.3456C89.1523 76.9778 88.9659 76.498 88.9652 76V56.9773C88.6985 57.3835 88.4354 57.792 88.1758 58.2027L88.0718 58.3667L88.0452 58.4093L88.0385 58.4213C87.8588 58.7099 87.6085 58.9478 87.3113 59.1128C87.0141 59.2777 86.6798 59.3642 86.3398 59.364H79.6732C79.1427 59.364 78.634 59.1533 78.259 58.7782C77.8839 58.4031 77.6732 57.8944 77.6732 57.364C77.6732 56.8336 77.8839 56.3249 78.259 55.9498C78.634 55.5747 79.1427 55.364 79.6732 55.364H85.2425C85.5665 54.8627 85.9932 54.212 86.4412 53.5587C86.9078 52.8773 87.4225 52.156 87.8812 51.5907C88.1038 51.3147 88.3532 51.0267 88.6038 50.7907C88.7265 50.6747 88.8972 50.524 89.1052 50.3907C89.4722 50.1497 89.9008 50.0192 90.3398 50.0147H98.3398V50.0133Z" fill="white"/>
<path d="M1.26998 50.5C1.26998 23.2382 23.37 1.13814 50.6318 1.13814H108.632C135.894 1.13814 157.994 23.2382 157.994 50.5V106.862H50.6318C23.37 106.862 1.26998 84.7618 1.26998 57.5V50.5Z" stroke="#0047AF" stroke-width="1.27629"/>
</svg>
