<svg width="158" height="107" viewBox="0 0 158 107" fill="none" xmlns="http://www.w3.org/2000/svg">
<path d="M0.638143 50C0.638143 22.7382 22.7382 0.638143 50 0.638143H108C135.262 0.638143 157.362 22.7382 157.362 50V106.362H50C22.7382 106.362 0.638143 84.2618 0.638143 57V50Z" fill="#0047AF"/>
<path d="M66.9943 79.2787L66.8005 76.7783C65.3957 75.8933 64.1018 74.8435 62.9463 73.6512L66.4814 64.701C67.3907 62.3978 67.9347 61.5365 69.1685 62.3978C71.8414 64.2636 74.8094 64.9952 75.9463 65.8201C79.7934 69.1018 86.9152 69.9312 93.1374 67.1178C95.8041 67.1178 101.644 70.5143 101.644 75.1978V79.2387L66.9943 79.2787Z" fill="white"/>
<path d="M63.5598 71.2692C61.2273 68.3812 58.4824 67.3066 58.038 65.5288C57.5553 63.6008 55.1998 51.6355 56.0895 47.8577C56.4451 45.6044 56.5198 43.3146 56.3118 41.0435C56.2584 40.1564 57.062 36.8764 57.062 35.0986C57.0186 33.9222 57.1307 32.7452 57.3953 31.5981C58.4513 30.0648 59.9482 30.9475 59.9713 32.0408L60.8949 28.1812C61.0611 27.0435 64.182 26.2088 63.7286 29.2924L64.1286 27.0879C64.734 25.8204 66.2442 26.0568 66.5802 26.4719C67.1331 27.191 66.8495 27.8426 66.8078 28.7261C66.8078 28.7261 68.8113 28.7092 68.2922 31.3946C68.1233 32.2675 66.8415 40.4879 66.8415 40.4879C67.2487 40.0808 68.2104 36.311 69.6184 36.311C71.502 36.311 71.3109 37.7777 71.3109 37.7777C71.3109 37.7777 70.7749 39.0515 70.1722 40.1537C69.2726 41.799 68.1447 45.0426 67.2558 45.9315C65.7689 46.9216 64.2183 47.8124 62.614 48.5981L65.2006 59.487C65.2006 59.487 65.3491 59.9652 67.4193 61.4924M74.9429 51.7261C74.8522 58.8364 78.5544 64.1706 84.7207 64.1706C90.9989 64.1706 94.5544 58.8372 94.5544 51.7261C94.5544 47.2817 91.8878 42.8372 91.8878 42.8372C84.7767 42.8372 82.9989 45.5039 77.6655 43.7261C76.019 46.0813 75.0749 48.8555 74.9429 51.7261Z" fill="#B1754E"/>
<path d="M92.1347 41.6697C85.492 41.6697 84.3871 44.8617 77.5925 43.3408C74.5667 42.6635 75.8876 57.9471 75.8876 57.9471C73.2209 57.9471 72.332 51.7248 72.332 45.5026C72.332 40.1693 76.7765 34.8359 84.7765 34.8359C92.7765 34.8359 97.2209 40.1693 97.2209 45.5026C97.2209 51.7248 96.332 57.9471 93.6654 57.9471C93.6654 57.9471 94.3027 41.6697 92.1347 41.6697Z" fill="black"/>
<path d="M66.9767 78.3809C67.06 77.9504 67.0352 77.506 66.9046 77.0874C66.774 76.6689 66.5416 76.2893 66.2282 75.9826C63.4211 73.8084 62.5322 73.0475 62.5322 73.0475L66.9767 62.3809" stroke="#0047AF" stroke-width="1.77778" stroke-linecap="round" stroke-linejoin="round"/>
<path d="M89.9753 50.8244C89.9753 51.176 89.871 51.5197 89.6757 51.8121C89.4803 52.1044 89.2027 52.3323 88.8778 52.4669C88.553 52.6014 88.1955 52.6366 87.8507 52.568C87.5058 52.4994 87.189 52.3301 86.9404 52.0815C86.6918 51.8329 86.5225 51.5161 86.4539 51.1712C86.3853 50.8264 86.4205 50.4689 86.555 50.1441C86.6896 49.8192 86.9174 49.5416 87.2098 49.3462C87.5022 49.1509 87.8459 49.0466 88.1975 49.0466C88.669 49.0466 89.1212 49.2339 89.4546 49.5673C89.788 49.9007 89.9753 50.3529 89.9753 50.8244ZM82.8642 50.8244C82.8642 51.176 82.7599 51.5197 82.5645 51.8121C82.3692 52.1044 82.0915 52.3323 81.7667 52.4669C81.4419 52.6014 81.0844 52.6366 80.7395 52.568C80.3947 52.4994 80.0779 52.3301 79.8293 52.0815C79.5807 51.8329 79.4113 51.5161 79.3428 51.1712C79.2742 50.8264 79.3094 50.4689 79.4439 50.1441C79.5785 49.8192 79.8063 49.5416 80.0987 49.3462C80.391 49.1509 80.7348 49.0466 81.0864 49.0466C81.5579 49.0466 82.0101 49.2339 82.3435 49.5673C82.6769 49.9007 82.8642 50.3529 82.8642 50.8244Z" fill="black"/>
<path d="M82.0885 57.9364C82.9132 58.3611 83.8275 58.5827 84.7551 58.5827C85.6828 58.5827 86.597 58.3611 87.4218 57.9364M64.9409 27.5293C64.3098 31.0173 63.9409 33.4235 63.4209 37.492M66.1489 40.492C66.4093 38.5702 67.1249 34.492 67.5329 30.3809" stroke="#0047AF" stroke-width="1.77778" stroke-linecap="round" stroke-linejoin="round"/>
<path d="M101.643 78.3793C101.643 78.3793 101.723 76.3793 101.723 75.7127C101.723 69.4905 93.6434 66.8238 93.6434 66.8238C87.4212 68.6016 83.8657 68.6016 79.4212 67.7127C76.5092 67.1305 70.5083 63.6327 66.0879 60.6016C66.0879 60.6016 62.6123 52.1571 62.6123 48.6016C62.6123 48.0833 67.5474 46.8291 68.8346 42.8238C69.5297 40.6629 70.4443 37.7802 70.4443 37.7802M59.8657 37.4905C60.6301 32.9785 61.2559 29.8273 61.6434 28.6016M63.5581 70.5847C59.1137 67.0291 57.7021 66.0336 57.199 63.2682C55.4212 53.4905 56.3101 50.3065 56.3101 47.2682C56.3101 46.3793 56.3234 47.2682 56.3234 41.9349C56.3243 41.2131 56.775 38.0291 57.199 35.7127C57.398 34.5053 57.6953 33.3161 58.0879 32.1571" stroke="#0047AF" stroke-width="1.77778" stroke-linecap="round" stroke-linejoin="round"/>
<path d="M75.8886 57.9471C73.2219 57.9471 72.333 51.7248 72.333 45.5026C72.333 40.1693 76.7775 34.8359 84.7775 34.8359C92.7775 34.8359 97.2219 40.1693 97.2219 45.5026C97.2219 51.7248 96.333 57.9471 93.6663 57.9471" stroke="black" stroke-width="1.77778" stroke-linecap="round" stroke-linejoin="round"/>
<path d="M74.9428 51.725C74.8521 58.8353 79.3303 64.1695 84.7205 64.1695C89.997 64.1695 94.5543 58.8362 94.5543 51.725C94.5543 47.2806 91.8876 41.9473 91.8876 41.9473C84.7765 41.9473 82.9988 44.6139 77.6654 42.8362C77.6654 42.8362 74.9988 47.2806 74.9428 51.725V51.725Z" stroke="black" stroke-width="1.77778" stroke-linejoin="round"/>
<path d="M0.638143 50C0.638143 22.7382 22.7382 0.638143 50 0.638143H108C135.262 0.638143 157.362 22.7382 157.362 50V106.362H50C22.7382 106.362 0.638143 84.2618 0.638143 57V50Z" stroke="#0047AF" stroke-width="1.27629"/>
</svg>
