<svg width="28" height="32" viewBox="0 0 28 32" fill="none" xmlns="http://www.w3.org/2000/svg">
<path fill-rule="evenodd" clip-rule="evenodd" d="M13.9066 12.8161C15.5699 12.8161 17.165 12.1554 18.3412 10.9793C19.5173 9.80318 20.178 8.20802 20.178 6.54474C20.178 4.88146 19.5173 3.2863 18.3412 2.11018C17.165 0.934067 15.5699 0.273331 13.9066 0.273331C12.2433 0.273331 10.6482 0.934067 9.47205 2.11018C8.29594 3.2863 7.6352 4.88146 7.6352 6.54474C7.6352 8.20802 8.29594 9.80318 9.47205 10.9793C10.6482 12.1554 12.2433 12.8161 13.9066 12.8161ZM5.01976 31.6304C1.84609 31.6304 -0.827296 28.9625 0.387216 26.0305V26.0305C1.12261 24.2551 2.20049 22.6419 3.55931 21.2831C4.91814 19.9242 6.5313 18.8464 8.30669 18.111C10.0821 17.3756 11.9849 16.9971 13.9066 16.9971C15.8283 16.9971 17.7311 17.3756 19.5065 18.111C21.2819 18.8464 22.8951 19.9242 24.2539 21.2831C25.6127 22.6419 26.6906 24.2551 27.426 26.0305V26.0305C28.6405 28.9625 25.9671 31.6304 22.7935 31.6304H5.01976Z" fill="white"/>
</svg>
