<svg width="117" height="56" viewBox="0 0 117 56" fill="none" xmlns="http://www.w3.org/2000/svg">
<g clip-path="url(#clip0_3617_1356)">
<path d="M107.18 0H9.7C4.34284 0 0 4.34284 0 9.7V45.5C0 50.8572 4.34284 55.2 9.7 55.2H107.18C112.537 55.2 116.88 50.8572 116.88 45.5V9.7C116.88 4.34284 112.537 0 107.18 0Z" fill="#2F2F2F"/>
<path d="M17.8799 15.04V39.57H42.4099V15.04H17.8799ZM31.6599 34.53H28.6299V20.08H31.6599V34.53Z" fill="white"/>
<path d="M46.0898 15.04V39.57H70.6198V15.04H46.0898ZM64.2398 34.53H60.7998L58.5198 24.33C58.4598 24 58.3998 23.72 58.3798 23.37H58.2998C58.2798 23.72 58.2598 24 58.1998 24.33L55.9198 34.53H52.4798L48.9798 20.08H52.0498L54.1098 30.07C54.1898 30.52 54.2298 30.82 54.2498 31.17H54.3098C54.3298 30.84 54.3898 30.52 54.4898 30.07L56.8298 20.08H59.8798L62.2398 30.07C62.3398 30.52 62.3798 30.84 62.3998 31.17H62.4598C62.4798 30.82 62.4998 30.52 62.5998 30.07L64.6598 20.08H67.7298L64.2298 34.53H64.2398Z" fill="white"/>
<path d="M89.9999 24.2103C89.9999 23.1703 89.3899 22.2803 87.6599 22.2803H85.0999V26.1103H87.6599C89.4499 26.1103 89.9999 25.1903 89.9999 24.2203V24.2103Z" fill="white"/>
<path d="M88.0198 28.22H85.0898V32.33H87.9198C89.6698 32.33 90.3598 31.37 90.3598 30.23C90.3598 29.03 89.6098 28.21 88.0198 28.21V28.22Z" fill="white"/>
<path d="M74.5898 15.04V39.57H99.1199V15.04H74.5898ZM88.6298 34.53H82.0499V20.08H88.3198C91.7598 20.08 93.1199 21.83 93.1199 23.83C93.1199 25.32 92.2398 26.58 90.5798 27.03C92.4098 27.31 93.5098 28.58 93.5098 30.51C93.5098 32.67 92.0198 34.54 88.6199 34.54L88.6298 34.53Z" fill="white"/>
</g>
<defs>
<clipPath id="clip0_3617_1356">
<rect width="116.88" height="55.2" fill="white"/>
</clipPath>
</defs>
</svg>
