<svg width="98" height="98" viewBox="0 0 98 98" fill="none" xmlns="http://www.w3.org/2000/svg">
<path d="M81.6667 81.6666V89.8332C81.6667 90.9902 81.2747 91.9593 80.4907 92.7406C79.7094 93.5246 78.7403 93.9166 77.5834 93.9166C76.4264 93.9166 75.4573 93.5246 74.676 92.7406C73.892 91.9593 73.5 90.9902 73.5 89.8332V81.6666H65.3334C64.1764 81.6666 63.2073 81.2746 62.426 80.4906C61.642 79.7093 61.25 78.7402 61.25 77.5832C61.25 76.4263 61.642 75.4572 62.426 74.6759C63.2073 73.8919 64.1764 73.4999 65.3334 73.4999H73.5V65.3332C73.5 64.1763 73.892 63.2058 74.676 62.4218C75.4573 61.6406 76.4264 61.2499 77.5834 61.2499C78.7403 61.2499 79.7094 61.6406 80.4907 62.4218C81.2747 63.2058 81.6667 64.1763 81.6667 65.3332V73.4999H89.8334C90.9903 73.4999 91.9594 73.8919 92.7407 74.6759C93.5247 75.4572 93.9167 76.4263 93.9167 77.5832C93.9167 78.7402 93.5247 79.7093 92.7407 80.4906C91.9594 81.2746 90.9903 81.6666 89.8334 81.6666H81.6667ZM12.25 81.6666C11.0931 81.6666 10.124 81.2746 9.34269 80.4906C8.55869 79.7093 8.16669 78.7402 8.16669 77.5832V57.1666H7.45211C6.15905 57.1666 5.10419 56.6725 4.28752 55.6843C3.47086 54.6989 3.19864 53.5596 3.47086 52.2666L7.55419 31.8499C7.75836 30.8971 8.23475 30.1145 8.98336 29.502C9.73197 28.8895 10.5827 28.5833 11.5354 28.5833H66.0479C67.0007 28.5833 67.8514 28.8895 68.6 29.502C69.3486 30.1145 69.825 30.8971 70.0292 31.8499L74.1125 52.2666C74.3847 53.5596 74.1125 54.6989 73.2959 55.6843C72.4792 56.6725 71.4243 57.1666 70.1313 57.1666H69.4167V65.3332C69.4167 66.4902 69.0247 67.4593 68.2407 68.2406C67.4594 69.0246 66.4903 69.4166 65.3334 69.4166C64.1764 69.4166 63.2073 69.0246 62.426 68.2406C61.642 67.4593 61.25 66.4902 61.25 65.3332V57.1666H44.9167V77.5832C44.9167 78.7402 44.5261 79.7093 43.7448 80.4906C42.9608 81.2746 41.9903 81.6666 40.8334 81.6666H12.25ZM16.3334 73.4999H36.75V57.1666H16.3334V73.4999ZM12.25 24.4999C11.0931 24.4999 10.124 24.1093 9.34269 23.328C8.55869 22.544 8.16669 21.5735 8.16669 20.4166C8.16669 19.2596 8.55869 18.2892 9.34269 17.5052C10.124 16.7239 11.0931 16.3333 12.25 16.3333H65.3334C66.4903 16.3333 67.4594 16.7239 68.2407 17.5052C69.0247 18.2892 69.4167 19.2596 69.4167 20.4166C69.4167 21.5735 69.0247 22.544 68.2407 23.328C67.4594 24.1093 66.4903 24.4999 65.3334 24.4999H12.25Z" fill="#F8F8F8"/>
</svg>
