<svg width="102" height="102" viewBox="0 0 102 102" fill="none" xmlns="http://www.w3.org/2000/svg">
<path d="M19.125 25.5C19.125 22.9639 20.1325 20.5316 21.9258 18.7383C23.7191 16.945 26.1514 15.9375 28.6875 15.9375H79.6875C82.2236 15.9375 84.6559 16.945 86.4492 18.7383C88.2425 20.5316 89.25 22.9639 89.25 25.5V57.375C89.25 59.9111 88.2425 62.3434 86.4492 64.1367C84.6559 65.93 82.2236 66.9375 79.6875 66.9375H54.1875V41.4375C54.1875 37.2106 52.5084 33.1568 49.5195 30.168C46.5307 27.1791 42.4769 25.5 38.25 25.5H22.3125C21.2128 25.5 20.145 25.6403 19.125 25.9016V25.5ZM92.4375 79.6875H54.1875V73.3125H92.4375C93.2829 73.3125 94.0936 73.6483 94.6914 74.2461C95.2892 74.8439 95.625 75.6546 95.625 76.5C95.625 77.3454 95.2892 78.1561 94.6914 78.7539C94.0936 79.3517 93.2829 79.6875 92.4375 79.6875ZM19.125 31.875C16.5889 31.875 14.1566 32.8825 12.3633 34.6758C10.57 36.4691 9.5625 38.9014 9.5625 41.4375V79.6875C9.5625 82.2236 10.57 84.6559 12.3633 86.4492C14.1566 88.2425 16.5889 89.25 19.125 89.25H38.25C40.7861 89.25 43.2184 88.2425 45.0117 86.4492C46.805 84.6559 47.8125 82.2236 47.8125 79.6875V41.4375C47.8125 38.9014 46.805 36.4691 45.0117 34.6758C43.2184 32.8825 40.7861 31.875 38.25 31.875H19.125ZM28.6875 79.6875C27.8421 79.6875 27.0314 79.3517 26.4336 78.7539C25.8358 78.1561 25.5 77.3454 25.5 76.5C25.5 75.6546 25.8358 74.8439 26.4336 74.2461C27.0314 73.6483 27.8421 73.3125 28.6875 73.3125C29.5329 73.3125 30.3436 73.6483 30.9414 74.2461C31.5392 74.8439 31.875 75.6546 31.875 76.5C31.875 77.3454 31.5392 78.1561 30.9414 78.7539C30.3436 79.3517 29.5329 79.6875 28.6875 79.6875Z" fill="white"/>
</svg>
