<svg width="90" height="90" viewBox="0 0 90 90" fill="none" xmlns="http://www.w3.org/2000/svg">
<path d="M51.3281 41.5723C52.4414 42.0117 53.5254 42.4951 54.5801 43.0225C55.6348 43.5498 56.6602 44.1504 57.6562 44.8242C57.0117 45.5273 56.4258 46.2598 55.8984 47.0215C55.3711 47.7832 54.8877 48.6035 54.4482 49.4824C52.1924 48.0176 49.79 46.9043 47.2412 46.1426C44.6924 45.3809 42.0703 45 39.375 45C36.7969 45 34.3066 45.3369 31.9043 46.0107C29.502 46.6846 27.2607 47.6221 25.1807 48.8232C23.1006 50.0244 21.2109 51.4893 19.5117 53.2178C17.8125 54.9463 16.3477 56.8506 15.1172 58.9307C13.8867 61.0107 12.9346 63.252 12.2607 65.6543C11.5869 68.0566 11.25 70.5469 11.25 73.125H5.625C5.625 69.6094 6.1377 66.2256 7.16309 62.9736C8.18848 59.7217 9.66797 56.7188 11.6016 53.9648C13.5352 51.2109 15.8203 48.7646 18.457 46.626C21.0938 44.4873 24.082 42.8027 27.4219 41.5723C24.1113 39.4043 21.5332 36.6797 19.6875 33.3984C17.8418 30.1172 16.9043 26.4844 16.875 22.5C16.875 19.3945 17.4609 16.4795 18.6328 13.7549C19.8047 11.0303 21.4014 8.64258 23.4229 6.5918C25.4443 4.54102 27.832 2.92969 30.5859 1.75781C33.3398 0.585938 36.2695 0 39.375 0C42.4805 0 45.3955 0.585938 48.1201 1.75781C50.8447 2.92969 53.2324 4.52637 55.2832 6.54785C57.334 8.56934 58.9453 10.957 60.1172 13.7109C61.2891 16.4648 61.875 19.3945 61.875 22.5C61.875 24.4336 61.6406 26.3232 61.1719 28.1689C60.7031 30.0146 60 31.7578 59.0625 33.3984C58.125 35.0391 57.0264 36.5479 55.7666 37.9248C54.5068 39.3018 53.0273 40.5176 51.3281 41.5723ZM22.5 22.5C22.5 24.8438 22.9395 27.0264 23.8184 29.0479C24.6973 31.0693 25.8984 32.8564 27.4219 34.4092C28.9453 35.9619 30.7324 37.1777 32.7832 38.0566C34.834 38.9355 37.0312 39.375 39.375 39.375C41.6895 39.375 43.8721 38.9355 45.9229 38.0566C47.9736 37.1777 49.7607 35.9766 51.2842 34.4531C52.8076 32.9297 54.0234 31.1426 54.9316 29.0918C55.8398 27.041 56.2793 24.8438 56.25 22.5C56.25 20.1855 55.8105 18.0029 54.9316 15.9521C54.0527 13.9014 52.8516 12.1143 51.3281 10.5908C49.8047 9.06738 48.0029 7.85156 45.9229 6.94336C43.8428 6.03516 41.6602 5.5957 39.375 5.625C37.0312 5.625 34.8486 6.06445 32.8271 6.94336C30.8057 7.82227 29.0186 9.02344 27.4658 10.5469C25.9131 12.0703 24.6973 13.8721 23.8184 15.9521C22.9395 18.0322 22.5 20.2148 22.5 22.5ZM87.1875 59.0625C87.1875 60.5859 86.9531 62.0654 86.4844 63.501C86.0156 64.9365 85.3125 66.2695 84.375 67.5V90L73.125 84.375L61.875 90V67.5C60.9668 66.2695 60.2783 64.9365 59.8096 63.501C59.3408 62.0654 59.0918 60.5859 59.0625 59.0625C59.0625 57.1289 59.4287 55.3125 60.1611 53.6133C60.8936 51.9141 61.8896 50.4346 63.1494 49.1748C64.4092 47.915 65.9033 46.9043 67.6318 46.1426C69.3604 45.3809 71.1914 45 73.125 45C75.0586 45 76.875 45.3662 78.5742 46.0986C80.2734 46.8311 81.7529 47.8418 83.0127 49.1309C84.2725 50.4199 85.2832 51.9141 86.0449 53.6133C86.8066 55.3125 87.1875 57.1289 87.1875 59.0625ZM73.125 50.625C71.9531 50.625 70.8545 50.8447 69.8291 51.2842C68.8037 51.7236 67.9102 52.3242 67.1484 53.0859C66.3867 53.8477 65.7861 54.7412 65.3467 55.7666C64.9072 56.792 64.6875 57.8906 64.6875 59.0625C64.6875 60.2344 64.9072 61.333 65.3467 62.3584C65.7861 63.3838 66.3867 64.2773 67.1484 65.0391C67.9102 65.8008 68.8037 66.4014 69.8291 66.8408C70.8545 67.2803 71.9531 67.5 73.125 67.5C74.2969 67.5 75.3955 67.2803 76.4209 66.8408C77.4463 66.4014 78.3398 65.8008 79.1016 65.0391C79.8633 64.2773 80.4639 63.3838 80.9033 62.3584C81.3428 61.333 81.5625 60.2344 81.5625 59.0625C81.5625 57.8906 81.3428 56.792 80.9033 55.7666C80.4639 54.7412 79.8633 53.8477 79.1016 53.0859C78.3398 52.3242 77.4463 51.7236 76.4209 51.2842C75.3955 50.8447 74.2969 50.625 73.125 50.625ZM78.75 80.9033V71.9385C76.9922 72.7295 75.1172 73.125 73.125 73.125C71.1328 73.125 69.2578 72.7295 67.5 71.9385V80.9033C68.4375 80.4346 69.375 79.9805 70.3125 79.541C71.25 79.1016 72.1875 78.6182 73.125 78.0908C74.0625 78.5889 75 79.0576 75.9375 79.4971C76.875 79.9365 77.8125 80.4053 78.75 80.9033Z" fill="white"/>
</svg>
